<svg width="776" height="262" viewBox="0 0 776 262" fill="none" xmlns="http://www.w3.org/2000/svg">
<g filter="url(#filter0_d_26_199)">
<path d="M152 87C86.8 -7.00002 -60.8334 -2.83336 -126.5 11C-163.833 21.6666 -235 66 -221 158C-207 250 -125.833 258.333 -87 251C-69.5 291.5 -0.800049 372.5 134 372.5C213.2 436.9 338.333 419.333 391 402.5C507.5 529 848.5 421.5 748 251C667.6 114.6 496.5 128.167 421 152C359 50 215.833 66.1666 152 87Z" fill="white"/>
<path d="M152 87C86.8 -7.00002 -60.8334 -2.83336 -126.5 11C-163.833 21.6666 -235 66 -221 158C-207 250 -125.833 258.333 -87 251C-69.5 291.5 -0.800049 372.5 134 372.5C213.2 436.9 338.333 419.333 391 402.5C507.5 529 848.5 421.5 748 251C667.6 114.6 496.5 128.167 421 152C359 50 215.833 66.1666 152 87Z" stroke="#212121" stroke-width="6"/>
</g>
<defs>
<filter id="filter0_d_26_199" x="-225.799" y="0.549377" width="1001.09" height="466.247" filterUnits="userSpaceOnUse" color-interpolation-filters="sRGB">
<feFlood flood-opacity="0" result="BackgroundImageFix"/>
<feColorMatrix in="SourceAlpha" type="matrix" values="0 0 0 0 0 0 0 0 0 0 0 0 0 0 0 0 0 0 127 0" result="hardAlpha"/>
<feOffset dx="6" dy="6"/>
<feComposite in2="hardAlpha" operator="out"/>
<feColorMatrix type="matrix" values="0 0 0 0 0.129412 0 0 0 0 0.129412 0 0 0 0 0.129412 0 0 0 1 0"/>
<feBlend mode="normal" in2="BackgroundImageFix" result="effect1_dropShadow_26_199"/>
<feBlend mode="normal" in="SourceGraphic" in2="effect1_dropShadow_26_199" result="shape"/>
</filter>
</defs>
</svg>
