<svg width="55" height="52" viewBox="0 0 55 52" fill="none" xmlns="http://www.w3.org/2000/svg">
<path d="M52.3098 16.4441C50.4149 12.8556 47.2426 10.2258 43.3589 9.01065C39.4753 7.79552 35.3553 8.15584 31.753 10.0243L29.8716 11.0002L28.8666 9.097C26.9717 5.50851 23.7841 2.84964 19.9005 1.63451C16.0279 0.422862 11.9079 0.783179 8.3202 2.64412C4.71789 4.51263 2.07083 7.66238 0.875721 11.5211C-0.330521 15.3764 0.063807 19.4656 1.95871 23.0541L16.3661 50.3382C16.5656 50.7159 16.9067 50.9924 17.285 51.1108C17.6634 51.2292 18.0978 51.2075 18.477 51.0108L45.9003 36.8512C49.5026 34.9826 52.1497 31.8329 53.3559 27.9776C54.5733 24.1259 54.2047 20.0326 52.3098 16.4441Z" fill="white"/>
<path fill-rule="evenodd" clip-rule="evenodd" d="M28.1886 16.3793L25.3295 10.9648C23.9267 8.30831 21.5804 6.35134 18.706 5.45201C15.8378 4.5546 12.8094 4.82164 10.162 6.19488C7.50019 7.57554 5.57214 9.87778 4.69666 12.7045L4.69324 12.7155C3.81043 15.5371 4.09061 18.5251 5.49585 21.1863L18.7839 46.3506L44.0585 33.3004C44.0594 33.2999 44.0604 33.2994 44.0613 33.299C46.7213 31.9183 48.6526 29.6144 49.5384 26.7832L49.5418 26.7722C50.436 23.943 50.1691 20.9564 48.7726 18.3119C47.3741 15.6635 45.0476 13.7302 42.1645 12.8282C39.2858 11.9275 36.2574 12.194 33.5947 13.5751L28.1886 16.3793ZM45.9003 36.8512L18.477 51.0108C18.0978 51.2075 17.6634 51.2292 17.285 51.1108C16.9067 50.9924 16.5656 50.7159 16.3661 50.3382L1.95871 23.0541C0.063807 19.4656 -0.330521 15.3764 0.875721 11.5211C2.07083 7.66238 4.71789 4.51263 8.3202 2.64412C11.9079 0.783179 16.0279 0.422862 19.9005 1.63451C23.7841 2.84964 26.9717 5.50851 28.8666 9.097L29.8716 11.0002L31.753 10.0243C35.3553 8.15584 39.4753 7.79552 43.3589 9.01065C47.2426 10.2258 50.4149 12.8556 52.3098 16.4441C54.2047 20.0326 54.5733 24.1259 53.3559 27.9776C52.1497 31.8329 49.5026 34.9826 45.9003 36.8512Z" fill="#212121"/>

</svg>