<svg width="61" height="44" viewBox="0 0 61 44" fill="none" xmlns="http://www.w3.org/2000/svg">
<g filter="url(#filter0_d_53_3)">
<path fill-rule="evenodd" clip-rule="evenodd" d="M16.2338 5.75946L6.07361 17.8885L18.2239 28.0232C19.5038 29.0908 21.4092 28.9205 22.4794 27.6429C23.5498 26.3652 23.3798 24.4639 22.0998 23.3962L17.8623 19.8616L39.1845 17.9557C41.6774 17.7329 43.8785 19.5688 44.1009 22.0565C44.3232 24.5441 42.4826 26.7414 39.9898 26.9642L35.476 27.3677C33.8141 27.5163 32.5871 28.9811 32.7353 30.6395C32.8835 32.298 34.351 33.522 36.0129 33.3734L40.5266 32.97C46.3433 32.45 50.638 27.3231 50.1192 21.5185C49.6004 15.714 44.4644 11.43 38.6477 11.95L17.3254 13.8559L20.8689 9.62577C21.9393 8.34802 21.7693 6.44673 20.4894 5.37907C19.2095 4.31143 17.3041 4.48175 16.2338 5.75946Z" fill="white"/>
<path d="M22.8567 21.4231L23.3809 21.8603L22.0998 23.3962L23.3809 21.8603C25.5103 23.6365 25.7933 26.8014 24.0126 28.9272C22.2341 31.0503 19.0697 31.3331 16.9428 29.5591L4.79253 19.4243L3.25346 18.1406L4.54045 16.6042L14.7006 4.4752C14.7006 4.47519 14.7006 4.47517 14.7006 4.47516C16.4792 2.35195 19.6436 2.0691 21.7705 3.84325C23.8999 5.61949 24.1828 8.78433 22.4021 10.9101L20.8899 9.64334L22.4021 10.9101L21.9638 11.4333L38.4696 9.95792C45.3826 9.34 51.4937 14.4319 52.1113 21.3405C52.7288 28.2491 47.6176 34.3441 40.7047 34.962L36.1909 35.3655C33.4328 35.612 30.9902 33.5802 30.7432 30.8176C30.4963 28.055 32.5399 25.6222 35.298 25.3756L39.8117 24.9722C41.2083 24.8473 42.2325 23.618 42.1088 22.2346C41.9852 20.851 40.7592 19.8229 39.3626 19.9477L22.8567 21.4231Z" stroke="#212121" stroke-width="4"/>
</g>
<defs>
<filter id="filter0_d_53_3" x="0.43335" y="0.677734" width="59.7286" height="42.708" filterUnits="userSpaceOnUse" color-interpolation-filters="sRGB">
<feFlood flood-opacity="0" result="BackgroundImageFix"/>
<feColorMatrix in="SourceAlpha" type="matrix" values="0 0 0 0 0 0 0 0 0 0 0 0 0 0 0 0 0 0 127 0" result="hardAlpha"/>
<feOffset dx="6" dy="6"/>
<feComposite in2="hardAlpha" operator="out"/>
<feColorMatrix type="matrix" values="0 0 0 0 0.129412 0 0 0 0 0.129412 0 0 0 0 0.129412 0 0 0 1 0"/>
<feBlend mode="normal" in2="BackgroundImageFix" result="effect1_dropShadow_53_3"/>
<feBlend mode="normal" in="SourceGraphic" in2="effect1_dropShadow_53_3" result="shape"/>
</filter>
</defs>
</svg>
