<?xml version="1.0" standalone="no"?>
<!DOCTYPE svg PUBLIC "-//W3C//DTD SVG 20010904//EN"
 "http://www.w3.org/TR/2001/REC-SVG-20010904/DTD/svg10.dtd">
<svg version="1.0" xmlns="http://www.w3.org/2000/svg"
 width="532.000000pt" height="532.000000pt" viewBox="0 0 532.000000 532.000000"
 preserveAspectRatio="xMidYMid meet">
<metadata>
Created by potrace 1.14, written by Peter Selinger 2001-2017
</metadata>
<g transform="translate(0.000000,532.000000) scale(0.100000,-0.100000)"
fill="#000000" stroke="none">
<path d="M2559 5315 c-3 -2 -23 -7 -45 -9 -104 -11 -259 -59 -374 -116 -41
-21 -95 -41 -120 -44 -69 -10 -284 -66 -325 -86 -11 -5 -50 -21 -87 -34 -81
-30 -263 -122 -336 -171 -30 -19 -57 -35 -62 -35 -5 0 -10 -3 -12 -7 -1 -5
-39 -35 -83 -68 -93 -69 -291 -264 -357 -350 -154 -203 -268 -427 -352 -691
-9 -28 -18 -59 -20 -70 -2 -10 -11 -46 -19 -79 -13 -53 -19 -80 -32 -170 -16
-102 -23 -167 -24 -237 -1 -43 -5 -50 -61 -104 -63 -61 -127 -148 -137 -187
-24 -95 -7 -160 60 -230 40 -42 117 -87 162 -94 11 -2 33 -5 48 -7 16 -3 30
-6 32 -8 2 -2 0 -31 -4 -65 -8 -67 -6 -409 3 -508 7 -85 17 -175 22 -199 2
-12 6 -32 9 -46 5 -26 10 -54 21 -105 10 -52 75 -257 101 -320 30 -72 95 -205
128 -260 13 -22 31 -53 41 -70 19 -33 138 -193 179 -240 39 -44 150 -158 171
-175 59 -47 130 -106 134 -111 3 -3 50 -35 105 -71 133 -87 263 -152 460 -228
68 -27 311 -86 391 -95 22 -3 59 -8 84 -11 68 -10 436 -10 515 -1 97 12 307
57 323 69 6 6 12 8 12 4 0 -18 299 113 414 181 73 43 206 132 224 150 7 7 17
13 20 13 4 0 19 11 34 25 15 14 44 36 64 50 20 14 34 25 30 25 -4 0 7 12 26
27 76 62 260 255 323 338 84 111 215 339 215 372 0 7 5 13 12 13 6 0 9 3 6 6
-4 3 5 30 18 60 22 51 87 252 98 306 3 13 7 34 10 48 12 54 37 197 41 230 25
252 25 539 0 738 -5 39 -4 43 22 53 15 6 33 12 38 13 11 3 21 7 130 48 153 59
293 142 338 202 73 96 57 241 -40 354 -81 95 -292 211 -449 247 -10 2 -55 14
-98 25 -44 12 -91 23 -105 25 -14 3 -35 6 -46 9 -11 2 -25 5 -31 5 -11 1 -32
41 -38 72 -2 8 -7 23 -11 34 -4 11 -21 56 -38 100 -17 44 -37 90 -45 103 -8
12 -12 22 -8 22 3 0 -18 44 -46 98 -28 53 -56 107 -62 119 -6 13 -14 23 -18
23 -5 0 -8 6 -8 13 -1 17 -155 234 -217 304 -28 32 -89 105 -134 163 -145 186
-329 354 -494 452 -94 56 -287 131 -366 143 -24 4 -47 9 -52 12 -11 7 -302 15
-308 8z"/>
</g>
</svg>
