<?xml version="1.0" standalone="no"?>
<!DOCTYPE svg PUBLIC "-//W3C//DTD SVG 20010904//EN"
 "http://www.w3.org/TR/2001/REC-SVG-20010904/DTD/svg10.dtd">
<svg version="1.0" xmlns="http://www.w3.org/2000/svg"
 width="512.000000pt" height="512.000000pt" viewBox="0 0 512.000000 512.000000"
 preserveAspectRatio="xMidYMid meet">
<metadata>
Created by potrace 1.14, written by Peter Selinger 2001-2017
</metadata>
<g transform="translate(0.000000,512.000000) scale(0.100000,-0.100000)"
fill="#000000" stroke="none">
<path d="M2405 5104 c-109 -19 -234 -58 -330 -104 -47 -22 -123 -47 -185 -60
-893 -188 -1520 -924 -1586 -1860 l-7 -95 -73 -76 c-141 -147 -161 -262 -64
-373 44 -49 102 -82 175 -97 l60 -12 1 -286 c0 -310 12 -431 61 -631 179 -737
742 -1287 1485 -1454 475 -107 935 -58 1333 141 337 169 688 474 878 763 60
92 155 285 197 400 109 297 159 705 130 1055 -6 83 -13 161 -14 173 -1 22 10
28 109 63 228 80 382 174 425 260 38 74 22 184 -40 275 -89 129 -331 247 -627
305 l-108 21 -45 127 c-89 249 -252 537 -406 715 -38 44 -87 103 -110 133
-134 175 -259 301 -405 405 -257 184 -572 262 -854 212z m426 -198 c123 -36
189 -67 304 -143 185 -124 409 -375 479 -541 68 -159 113 -339 141 -565 8 -67
15 -127 15 -134 0 -11 -53 -13 -267 -9 l-268 4 -8 38 c-99 453 -319 854 -599
1091 -101 86 -236 173 -319 205 -32 13 -59 26 -59 29 0 7 104 36 175 49 28 5
111 7 185 5 108 -2 152 -8 221 -29z m-667 -141 c194 -63 361 -169 521 -329
119 -120 184 -208 263 -356 84 -158 167 -390 187 -522 l7 -45 -176 -11 c-374
-25 -661 -84 -843 -172 -57 -28 -112 -50 -123 -50 -52 0 -445 -111 -725 -204
-637 -213 -786 -289 -881 -451 -14 -25 -57 -13 -96 25 l-29 30 18 31 c35 61
157 162 274 229 277 157 679 309 1098 415 95 24 176 47 180 51 11 12 -166 -6
-306 -31 -287 -53 -595 -145 -897 -269 l-159 -65 7 82 c10 117 50 310 91 435
47 142 169 385 250 497 168 234 391 424 640 548 112 56 139 60 270 47 127 -13
215 -39 315 -92 257 -137 429 -393 535 -799 l25 -94 -5 65 c-12 147 -80 391
-146 522 -80 159 -206 301 -337 377 -75 44 -232 101 -278 101 -51 0 -11 18 86
38 126 26 144 26 234 -3z m1725 -905 c63 -125 160 -357 150 -363 -2 -1 -44 0
-94 3 l-89 5 -22 175 c-12 96 -29 214 -38 261 -9 47 -16 90 -16 95 1 21 44
-49 109 -176z m11 -491 c162 -16 340 -39 395 -51 293 -60 514 -176 544 -284
10 -36 9 -41 -17 -67 l-28 -27 -51 49 c-101 98 -343 162 -803 213 -175 20
-899 17 -1169 -5 -233 -19 -444 -22 -505 -7 -21 4 -46 16 -55 25 -15 15 -14
18 12 40 57 50 269 101 517 126 358 35 730 31 1160 -12z m-1777 -249 c77 -28
230 -50 345 -50 51 0 211 9 355 21 226 18 313 20 637 16 384 -6 637 -24 668
-49 28 -23 102 -195 128 -295 86 -339 77 -828 -21 -1190 -88 -326 -223 -562
-455 -793 -269 -269 -517 -426 -840 -534 -407 -136 -939 -88 -1367 123 -569
280 -930 813 -1002 1483 -22 195 -12 424 29 673 19 118 20 121 60 157 85 76
258 144 752 292 433 130 601 176 628 172 14 -3 51 -14 83 -26z m2291 -115
c111 -29 213 -73 239 -103 18 -20 18 -21 -3 -32 -27 -15 -227 -90 -239 -90 -4
0 -13 18 -20 40 -6 21 -29 78 -51 125 -21 47 -35 85 -31 85 5 0 52 -11 105
-25z"/>
<path d="M2403 1801 c-145 -105 -160 -351 -21 -351 89 0 173 88 199 209 29
137 -73 218 -178 142z"/>
<path d="M3813 1541 c-119 -86 -153 -265 -58 -301 39 -15 89 6 138 59 63 68
81 115 78 204 -3 69 -87 90 -158 38z"/>
</g>
</svg>
