<svg width="296" height="216" viewBox="0 0 296 216" fill="none" xmlns="http://www.w3.org/2000/svg">
<path d="M96.4621 143.307L138.606 133.36C138.658 133.347 138.713 133.345 138.765 133.351L208.568 141.503C208.799 141.529 208.975 141.727 208.975 141.96V143.19C208.975 143.36 208.881 143.514 208.733 143.594L173.346 162.552C173.248 162.604 173.135 162.62 173.026 162.596L96.4665 144.984C96.2578 144.936 96.11 144.751 96.11 144.536V143.755C96.11 143.542 96.2556 143.357 96.4643 143.31L96.4621 143.307Z" fill="#212121"/>
<path d="M104.07 143.199L138.749 134.999C138.769 134.995 138.789 134.993 138.808 134.995L201.916 141.953C202.09 141.973 202.127 142.21 201.968 142.281L172.091 155.742C172.059 155.757 172.024 155.761 171.989 155.755L104.077 143.536C103.892 143.503 103.886 143.242 104.068 143.199H104.07Z" fill="white"/>
<path d="M58.3899 32.1992C54.9617 29.4167 54.5139 26.6886 54.5139 26.6886C52.3966 25.5582 51.1576 22.2735 51.1576 22.2735L46.6708 16.5303C46.6708 16.5303 42.8666 11.7566 50.9793 4.25257C55.7095 -0.125499 59.7833 -0.0537625 62.3549 0.763594C63.9048 1.25705 65.2352 2.27222 66.1765 3.59825L69.2133 7.87851C69.2133 7.87851 72.0849 9.92407 72.8023 12.0066C72.8023 12.0066 75.9065 13.3348 76.5347 17.1759L140.432 104.55L148.329 138.008L120.807 118.48L58.3899 32.1992Z" fill="#212121"/>
<path d="M52.0551 20.8019C52.0551 20.8019 57.2962 10.3545 67.3827 8.02202L63.8286 3.41787C63.6742 3.21788 63.4764 3.05484 63.2481 2.94398C62.0112 2.33965 57.794 0.763635 53.0942 4.46782C47.4945 8.88285 46.9923 13.8218 47.7814 15.2108C48.5705 16.5999 52.053 20.8019 52.053 20.8019H52.0551Z" fill="#DE6B9B"/>
<path d="M70.9131 12.1023C69.6458 9.35021 68.448 9.08717 68.448 9.08717C57.2724 11.624 53.0596 22.2975 53.0596 22.2975C53.0596 22.2975 53.8487 24.5952 55.4769 25.7191L56.5855 23.7974C59.4789 18.7846 63.9721 14.8891 69.3415 12.7327L70.911 12.1023H70.9131Z" fill="white"/>
<path d="M75.0282 16.9412C73.7609 14.1891 71.9044 12.9739 71.9044 12.9739C60.7288 15.5108 56.0964 26.7712 56.0964 26.7712C56.0964 26.7712 57.1486 29.4754 58.7768 30.5993L59.7963 28.4733C59.8637 28.332 59.9376 28.1928 60.018 28.0559C62.8614 23.2409 67.1307 19.8367 72.3023 17.6998C72.4914 17.6216 72.687 17.5585 72.8827 17.5064L75.0261 16.939L75.0282 16.9412Z" fill="white"/>
<path d="M63.3614 26.1147C61.1354 28.5015 59.968 31.6427 59.968 31.6427L121.239 115.896C121.239 115.896 125.883 116.469 125.978 111.491L63.3614 26.1147Z" fill="#496EB5"/>
<path d="M71.9241 19.3476C69.0524 19.9932 64.17 24.9473 64.17 24.9473L126.459 110.102C126.459 110.102 134.569 113.8 134.452 105.005L71.9241 19.3476Z" fill="#496EB5"/>
<path d="M75.55 18.2281C74.2087 18.2824 72.9718 18.8563 72.9718 18.8563L135.147 104.216C135.147 104.216 136.056 105.292 138.186 105.244L75.55 18.2281Z" fill="#496EB5"/>
<path d="M122.252 117.169C122.252 117.169 127.708 117.35 127.063 111.461C127.063 111.461 135.462 113.885 135.534 105.772C135.534 105.772 136.917 106.633 138.495 106.346L143.306 125.419C143.306 125.419 138.878 124.343 137.802 128.841L122.252 117.167V117.169Z" fill="white"/>
<path d="M92.2599 28.8428V39.3445L103.244 54.4743L113.152 57.2025L122.237 55.1547L129.378 50.3441L134.26 43.6313L136.667 35.1252L136.162 27.945L133.902 22.5605L112.183 22.2735L109.061 21.304L94.162 26.1147L92.2599 28.8428Z" fill="white"/>
<path d="M91.6144 29.6689L88.3472 27.3342L91.1123 24.4995L92.9426 14.4826L100.086 6.33508L105.938 3.6439L111.709 1.59616L118.609 1.16574L126.65 6.40682L131.354 12.9761L134.082 19.3476L141.225 21.304L142.195 24.7604L136.306 27.7298L133.902 22.5605L112.183 22.2735L109.277 21.3388L92.547 27.3342L91.6144 29.6689Z" fill="#DE6B9B"/>
<path d="M115.176 37.2447C114.422 36.8686 113.342 37.5012 112.761 38.662C112.181 39.8206 112.324 41.0662 113.079 41.4445C113.833 41.8206 114.913 41.188 115.494 40.0272C116.074 38.8685 115.931 37.6229 115.176 37.2447Z" fill="#212121"/>
<path d="M131.108 40.1902C130.5 39.8076 129.495 40.3075 128.865 41.3075C128.237 42.3075 128.219 43.4291 128.83 43.8139C129.439 44.1965 130.443 43.6965 131.074 42.6966C131.702 41.6966 131.719 40.5749 131.108 40.1902Z" fill="#212121"/>
<path d="M109.827 132.504C108.918 132.001 107.003 130.828 101.379 131.428C101.379 131.428 113.057 112.785 98.5555 98.3768C98.5555 98.3768 102.001 94.74 102.577 90.6706L80.8714 60.4436C80.8714 60.4436 73.787 61.4958 77.402 56.9981C81.0149 52.4983 93.1492 42.0401 88.3624 37.3012C83.5757 32.5622 73.237 51.3723 71.5631 55.7286C69.8893 60.085 71.5631 62.4783 71.9457 62.9566C72.3283 63.4348 75.4869 66.9781 82.9061 65.0152C82.9061 65.0152 71.837 91.9858 80.1476 97.4421C80.1476 97.4421 82.8214 109.433 81.8888 113.202C80.9562 116.972 78.5868 117.941 75.8586 118.191C73.1305 118.441 70.3306 117.617 69.2176 116.972C68.1046 116.326 65.8438 114.496 64.0482 116.791C62.2527 119.089 60.8527 120.991 60.2071 122.893C59.5615 124.795 58.9876 126.734 60.4223 127.81C61.8592 128.886 64.083 126.769 64.3352 126.41C64.5874 126.052 66.8829 122.784 67.3503 121.528C67.3503 121.528 77.8324 126.878 85.0126 119.23C88.5624 115.45 87.7059 107.511 85.9343 100.448C85.9343 100.448 88.4581 101.794 93.5318 100.598C93.5318 100.598 104.536 109.607 99.1054 124.137C98.5229 125.697 97.7729 127.189 96.9055 128.612C95.5186 130.891 92.4796 136.471 96.1403 136.186C96.1403 136.186 108.012 136.282 110.116 135.78C112.222 135.277 110.738 133.004 109.829 132.501L109.827 132.504Z" fill="#212121"/>
<path d="M134.341 18.1585C133.245 14.5217 131.528 11.3001 129.228 8.57413C129.089 8.40892 128.948 8.26327 128.811 8.12197C128.645 7.95024 128.489 7.78938 128.38 7.63504C123.772 1.12445 118.765 -0.108107 115.376 0.00710528C112.224 0.113622 109.894 1.36357 109.216 1.77007C106.438 2.20484 101.333 3.55913 96.9315 7.78068C90.7774 13.6804 90.01 21.3127 89.9557 24.1887C89.0014 24.9495 87.108 26.7364 87.8645 28.4168C88.534 29.9058 89.9492 30.3819 91.1535 30.4384C90.6883 34.0969 91.3317 38.7707 91.3622 38.9924L91.3926 39.2054L91.51 39.3858C91.76 39.775 97.6815 48.9572 100.212 51.8484C100.953 52.694 101.851 53.4765 102.833 54.1765L112.709 67.1716L113.611 65.0087C113.833 65.163 115.431 66.8912 116.618 68.1868C118.344 70.0693 120.461 72.1236 121.576 74.4191C123.063 77.4799 124.306 80.9775 122.737 84.2665C119.722 90.5836 124.389 92.2423 125.789 91.9553C127.189 91.6684 127.38 91.7705 128.852 90.238C131.047 87.9533 130.791 82.2014 129.784 78.4211C128.78 74.6409 125.022 67.2629 119.709 63.6739C114.396 60.085 113.007 57.8372 113.007 57.8372H113.003C113.42 57.8568 113.848 57.872 114.294 57.872C118.894 57.872 124.898 56.5025 131.23 49.9463C138.467 42.4531 137.512 31.5579 137.045 28.3711C137.671 28.1755 138.571 27.8755 139.482 27.5016C142.077 26.4429 143.275 25.443 143.373 24.2648C143.723 19.9497 136.684 18.515 134.341 18.1563V18.1585ZM132.384 18.4585C131.595 18.4063 130.834 18.365 130.097 18.3302C129.867 15.5586 129.506 13.3609 129.111 11.6457C130.508 13.6783 131.604 15.9586 132.384 18.4585ZM126.785 8.76542C126.848 8.85238 126.913 8.93498 126.978 9.01541C127.945 10.7871 128.989 13.7065 129.28 18.2933C126.972 18.1976 124.926 18.1802 123.115 18.2215C120.417 4.93298 111.716 2.72655 111.709 2.72438C114.605 1.58747 120.922 0.483172 126.785 8.76542ZM91.0513 28.4776C90.5144 28.4276 89.9209 28.2211 89.647 27.6146C89.5383 27.3755 90.3426 26.2995 91.4969 25.4756L91.9121 25.1799C91.9121 25.1799 97.175 21.6084 107.533 19.365C107.533 19.365 101.601 19.3367 91.9317 23.6148C92.0795 20.6301 93.0469 14.2174 98.2836 9.19367C100.251 7.30897 102.37 6.05032 104.322 5.20906C114.872 4.51343 116.165 17.0325 116.165 17.0325C115.259 6.90681 110.137 4.67864 106.633 4.36779C107.831 4.00476 108.89 3.79607 109.703 3.67869L109.922 3.64608C109.922 3.64608 119.683 5.10254 122.233 18.2476H122.235C112.057 18.5911 109.759 20.7845 109.759 20.7845C106.294 21.1975 95.975 24.6973 93.4077 26.0799C91.8187 26.9364 91.2535 27.882 91.0513 28.4798V28.4776ZM129.821 48.5876C121.82 56.8721 114.398 56.0656 111.605 55.7612C108.748 55.4504 104.142 53.3744 101.681 50.5615C99.4357 47.9942 94.1338 39.8445 93.2708 38.512C93.1382 37.449 92.5925 32.5992 93.2838 29.5863L93.6273 28.0711C93.6273 28.0711 93.6947 27.6016 95.525 26.6516C97.3554 25.7017 108.753 22.3801 109.759 22.2714C109.759 22.2714 110.818 23.0605 114.031 23.1865C117.244 23.3126 120.637 22.3061 129.358 22.8453C130.819 22.9344 132.084 23.0605 133.182 23.2083C133.193 23.2213 134.158 24.3995 134.793 26.9777L134.976 27.8755C135.002 28.0016 137.471 40.6662 129.821 48.5876ZM139.391 25.4125C138.521 25.806 137.456 26.2082 136.349 26.5429C136.023 25.243 135.043 23.517 135.036 23.5039C138.614 24.1822 139.651 25.0886 139.393 25.4125H139.391ZM140.656 24.7582C140.336 23.893 139.041 22.7474 132.967 21.967C126.541 21.141 120.33 21.6431 116.168 21.9496C112.003 22.254 111.524 21.6866 111.418 21.5062C111.309 21.3258 111.411 20.6932 114.498 20.028C117.585 19.3628 124.437 19.0802 128.624 19.5084C132.81 19.9367 133.008 19.9606 133.008 19.9606L133.463 20.0128C136.134 20.328 141.58 21.7366 141.423 24.0865C141.351 24.2691 141.075 24.5017 140.656 24.7582Z" fill="#212121"/>
<path d="M238.275 32.1993C241.704 29.4168 242.151 26.6886 242.151 26.6886C244.269 25.5582 245.508 22.2736 245.508 22.2736L249.994 16.5304C249.994 16.5304 253.799 11.7567 245.686 4.25263C240.954 -0.123268 236.88 -0.0537059 234.308 0.76365C232.758 1.25711 231.428 2.27228 230.487 3.59831L227.45 7.87856C227.45 7.87856 224.578 9.92413 223.861 12.0066C223.861 12.0066 220.757 13.3348 220.128 17.176L156.231 104.55L148.334 138.008L175.856 118.48L238.278 32.1993H238.275Z" fill="#212121"/>
<path d="M244.61 20.8019C244.61 20.8019 239.369 10.3545 229.282 8.02202L232.837 3.41787C232.991 3.21788 233.189 3.05484 233.417 2.94398C234.654 2.33965 238.871 0.763635 243.571 4.46782C249.171 8.88285 249.673 13.8218 248.884 15.2108C248.095 16.5999 244.612 20.8019 244.612 20.8019H244.61Z" fill="#DE6B9B"/>
<path d="M225.752 12.1023C227.019 9.35021 228.217 9.08717 228.217 9.08717C239.393 11.624 243.606 22.2975 243.606 22.2975C243.606 22.2975 242.817 24.5952 241.188 25.7191L240.08 23.7974C237.186 18.7846 232.693 14.8891 227.324 12.7327L225.754 12.1023H225.752Z" fill="white"/>
<path d="M221.637 16.9412C222.904 14.1891 224.761 12.9739 224.761 12.9739C235.936 15.5108 240.569 26.7712 240.569 26.7712C240.569 26.7712 239.517 29.4754 237.889 30.5993L236.869 28.4733C236.802 28.332 236.728 28.1928 236.647 28.0559C233.804 23.2409 229.535 19.8367 224.363 17.6998C224.174 17.6216 223.978 17.5585 223.783 17.5064L221.639 16.939L221.637 16.9412Z" fill="white"/>
<path d="M233.304 26.1147C235.53 28.5015 236.697 31.6427 236.697 31.6427L175.426 115.896C175.426 115.896 170.783 116.469 170.687 111.491L233.306 26.1147H233.304Z" fill="#496EB5"/>
<path d="M224.741 19.3476C227.613 19.9932 232.495 24.9473 232.495 24.9473L170.207 110.102C170.207 110.102 162.096 113.8 162.214 105.005L224.741 19.3454V19.3476Z" fill="#496EB5"/>
<path d="M221.115 18.2281C222.457 18.2824 223.693 18.8563 223.693 18.8563L161.518 104.216C161.518 104.216 160.609 105.292 158.479 105.244L221.115 18.2281Z" fill="#496EB5"/>
<path d="M174.413 117.169C174.413 117.169 168.957 117.35 169.602 111.461C169.602 111.461 161.203 113.885 161.131 105.772C161.131 105.772 159.748 106.633 158.17 106.346L153.36 125.419C153.36 125.419 157.788 124.343 158.864 128.841L174.413 117.167V117.169Z" fill="white"/>
<path d="M204.405 28.8429V39.3446L193.421 54.4744L183.513 57.2025L174.428 55.1548L167.287 50.3441L162.405 43.6314L160 35.1252L160.503 27.9451L162.763 22.5605L184.482 22.2736L187.606 21.3041L202.503 26.1147L204.405 28.8429Z" fill="white"/>
<path d="M205.051 29.6689L208.318 27.3342L205.553 24.4996L203.723 14.4826L196.579 6.33513L190.727 3.64394L184.956 1.5962L178.056 1.16579L170.015 6.40687L165.313 12.9761L162.585 19.3476L155.44 21.3041L154.47 24.7604L160.359 27.7299L162.763 22.5605L184.482 22.2736L187.391 21.3388L204.118 27.3342L205.051 29.6689Z" fill="#DE6B9B"/>
<path d="M181.489 37.2447C182.243 36.8686 183.323 37.5012 183.904 38.662C184.484 39.8207 184.341 41.0663 183.586 41.4445C182.832 41.8206 181.752 41.188 181.171 40.0272C180.591 38.8685 180.734 37.6229 181.489 37.2447Z" fill="#212121"/>
<path d="M165.557 40.1902C166.165 39.8076 167.17 40.3076 167.8 41.3075C168.428 42.3075 168.446 43.4292 167.835 43.814C167.226 44.1966 166.222 43.6966 165.592 42.6966C164.963 41.6967 164.946 40.575 165.557 40.1902Z" fill="#212121"/>
<path d="M186.839 132.504C187.747 132.001 189.662 130.828 195.286 131.428C195.286 131.428 183.608 112.785 198.11 98.3768C198.11 98.3768 194.664 94.74 194.088 90.6707L215.794 60.4437C215.794 60.4437 222.878 61.4958 219.263 56.9982C215.65 52.4984 203.516 42.0401 208.303 37.3012C213.09 32.5623 223.428 51.3723 225.102 55.7287C226.776 60.085 225.102 62.4784 224.72 62.9566C224.337 63.4349 221.178 66.9782 213.759 65.0152C213.759 65.0152 224.828 91.9858 216.518 97.4421C216.518 97.4421 213.844 109.433 214.777 113.202C215.709 116.972 218.079 117.941 220.807 118.191C223.535 118.441 226.335 117.617 227.448 116.972C228.561 116.326 230.821 114.496 232.617 116.791C234.413 119.089 235.813 120.991 236.458 122.893C237.104 124.795 237.678 126.734 236.243 127.81C234.806 128.886 232.582 126.769 232.33 126.41C232.078 126.052 229.782 122.784 229.315 121.528C229.315 121.528 218.833 126.878 211.653 119.23C208.103 115.45 208.959 107.511 210.731 100.448C210.731 100.448 208.207 101.794 203.134 100.598C203.134 100.598 192.13 109.607 197.56 124.137C198.142 125.697 198.892 127.189 199.76 128.613C201.147 130.891 204.186 136.471 200.525 136.186C200.525 136.186 188.654 136.282 186.549 135.78C184.443 135.277 185.928 133.004 186.836 132.501L186.839 132.504Z" fill="#212121"/>
<path d="M153.292 24.267C153.388 25.4473 154.588 26.4451 157.183 27.5038C158.096 27.8755 158.994 28.1777 159.62 28.3733C159.153 31.5579 158.198 42.4553 165.435 49.9485C171.767 56.5047 177.771 57.8742 182.371 57.8742C182.817 57.8742 183.245 57.859 183.663 57.8372H183.658C183.658 57.8372 182.269 60.085 176.956 63.6761C171.643 67.2651 167.887 74.6409 166.881 78.4233C165.876 82.2036 165.618 87.9555 167.813 90.2402C169.285 91.7727 169.476 91.6706 170.876 91.9575C172.276 92.2445 176.943 90.588 173.928 84.2687C172.359 80.9776 173.602 77.4821 175.089 74.4213C176.204 72.1236 178.324 70.0715 180.047 68.189C181.234 66.8934 182.832 65.1674 183.054 65.0108L183.956 67.1738L193.832 54.1787C194.814 53.4787 195.714 52.6983 196.453 51.8505C198.984 48.9572 204.905 39.7772 205.155 39.388L205.272 39.2076L205.303 38.9946C205.333 38.7728 205.977 34.0991 205.512 30.4406C206.716 30.3841 208.131 29.908 208.801 28.4189C209.557 26.7386 207.664 24.9517 206.709 24.1909C206.655 21.3149 205.888 13.6826 199.734 7.78288C195.332 3.56132 190.227 2.20703 187.449 1.77227C186.771 1.36576 184.441 0.115815 181.289 0.00929774C177.9 -0.108089 172.893 1.12447 168.283 7.63723C168.174 7.79157 168.018 7.95243 167.852 8.12417C167.715 8.26546 167.576 8.41111 167.435 8.57632C165.135 11.3023 163.418 14.5239 162.322 18.1607C159.981 18.5172 152.942 19.9541 153.29 24.2691L153.292 24.267ZM167.552 11.6458C167.157 13.3609 166.796 15.5586 166.565 18.3302C165.829 18.365 165.068 18.4085 164.279 18.4585C165.059 15.9586 166.155 13.6783 167.552 11.6458ZM184.954 2.7244C184.954 2.7244 176.245 4.933 173.548 18.2216C171.735 18.1824 169.689 18.1998 167.383 18.2933C167.674 13.7065 168.715 10.7871 169.685 9.01543C169.752 8.935 169.817 8.8524 169.878 8.76544C175.741 0.483191 182.06 1.58532 184.954 2.7244ZM203.253 26.0777C200.686 24.6952 190.367 21.1953 186.902 20.7823C186.902 20.7823 184.602 18.5868 174.426 18.2455H174.428C176.978 5.09821 186.738 3.64175 186.738 3.64175L186.958 3.67436C187.771 3.79392 188.83 4.0026 190.027 4.36346C186.523 4.67431 181.4 6.90465 180.495 17.0281C180.495 17.0281 181.789 4.5091 192.338 5.20473C194.29 6.04599 196.412 7.30464 198.377 9.18934C203.616 14.213 204.581 20.6258 204.729 23.6105C195.06 19.3324 189.128 19.3606 189.128 19.3606C199.484 21.604 204.749 25.1756 204.749 25.1756L205.164 25.4712C206.318 26.2951 207.12 27.3712 207.014 27.6103C206.74 28.219 206.146 28.4233 205.609 28.4733C205.409 27.8755 204.842 26.9277 203.253 26.0734V26.0777ZM161.685 27.8777L161.868 26.9799C162.503 24.4017 163.468 23.2213 163.479 23.2105C164.576 23.0627 165.842 22.9387 167.302 22.8474C176.026 22.3083 179.417 23.3148 182.63 23.1887C185.843 23.0627 186.902 22.2736 186.902 22.2736C187.906 22.3801 199.305 25.7017 201.136 26.6538C202.966 27.6059 203.033 28.0733 203.033 28.0733L203.377 29.5885C204.068 32.6014 203.523 37.4512 203.39 38.5142C202.527 39.8467 197.227 47.9964 194.979 50.5636C192.519 53.3766 187.912 55.4526 185.056 55.7634C182.263 56.0678 174.841 56.8742 166.839 48.5898C159.19 40.6706 161.659 28.0059 161.685 27.8777ZM161.627 23.5061C161.62 23.517 160.64 25.2452 160.314 26.5451C159.207 26.2103 158.142 25.8104 157.272 25.4147C157.011 25.0908 158.048 24.1843 161.629 23.5061H161.627ZM155.24 24.0887C155.083 21.7388 160.529 20.3302 163.2 20.015L163.655 19.9606C163.655 19.9606 163.853 19.9367 168.039 19.5085C172.226 19.0802 179.078 19.365 182.165 20.028C185.252 20.691 185.354 21.3258 185.245 21.5062C185.136 21.6866 184.658 22.254 180.495 21.9497C176.33 21.6453 170.122 21.141 163.696 21.9671C157.622 22.7475 156.327 23.8931 156.007 24.7582C155.588 24.5017 155.312 24.267 155.24 24.0865V24.0887Z" fill="#212121"/>
<path d="M158.898 148.705C157.546 148.759 155.983 148.818 154.536 148.718C150.055 148.407 148.868 148.036 148.764 146.905C148.64 145.575 150.218 145.164 154.433 144.064C155.857 143.692 158.64 143.081 160.09 142.44C162.207 141.508 160.079 140.955 159.605 140.825C157.507 140.245 154.903 140.751 152.175 141.381C149.203 142.068 146.838 143.26 143.099 142.912C142.271 142.834 140.382 142.318 140.38 140.914C140.377 139.792 140.995 139.547 143.997 138.588C145.762 138.023 148.262 138.025 148.334 138.008C146.373 138.445 143.227 139.625 142.721 140.532C142.586 140.773 142.714 141.09 142.984 141.151H142.993C144.129 141.421 149.092 140.936 151.853 140.299C155.262 139.512 158.785 138.697 161.831 140.445C162.857 141.034 162.996 141.731 162.931 142.216C162.724 143.768 160.333 144.549 154.925 145.96C154.523 146.064 154.086 146.179 153.646 146.296C153.427 146.355 153.453 146.675 153.679 146.694C153.981 146.72 154.309 146.744 154.668 146.77C169.761 147.82 179.298 142.573 179.393 142.521C179.026 142.729 171.522 147.251 158.896 148.709L158.898 148.705Z" fill="#212121"/>
<path d="M121.674 126.021C125.906 129.312 131.33 130.228 131.33 130.228C131.33 130.228 128.287 130.521 125.924 129.497C123.561 128.473 121.674 126.023 121.674 126.023V126.021Z" fill="#212121"/>
<path d="M121.581 129.104C124.541 132.623 128.026 131.984 128.026 131.984C128.026 131.984 126.137 131.801 124.37 130.869C122.602 129.938 121.581 129.104 121.581 129.104Z" fill="#212121"/>
<path d="M150.847 103.007C150.847 103.007 150.81 97.2269 152.786 92.9205C152.786 92.9205 150.99 99.5268 150.847 103.007Z" fill="#212121"/>
<path d="M158.994 98.7724C158.994 98.7724 160.19 92.3466 164.72 87.3925C164.72 87.3925 160.125 95.4704 158.994 98.7724Z" fill="#212121"/>
<path d="M131.771 88.7555C131.771 88.7555 135.552 92.2966 138.569 98.5203C138.569 98.5203 132.587 89.0902 131.771 88.7555Z" fill="#212121"/>
<path d="M61.1722 130.588C60.3092 130.536 59.9701 129.728 59.9701 129.728C59.9701 129.728 60.8853 130.708 62.6569 130.062C62.6569 130.062 62.3461 130.66 61.1722 130.588Z" fill="#212121"/>
<path d="M230.361 113.957C230.361 113.957 232.982 113.167 234.345 115.033C234.345 115.033 233.304 112.233 230.361 113.957Z" fill="#212121"/>
<path d="M48.1097 178.732L47.5663 178.689C47.3728 178.673 47.175 178.665 46.9815 178.665C46.788 178.665 46.5902 178.673 46.4163 178.686C44.4751 178.784 42.5556 179.343 40.847 180.31C40.7905 180.345 40.7274 180.362 40.6622 180.362C40.6144 180.362 40.5687 180.354 40.5253 180.334C40.4253 180.293 40.3492 180.208 40.3187 180.106C40.3035 180.019 40.2948 179.93 40.2927 179.83C40.2731 179.43 40.247 179.123 40.2144 178.893L40.1405 178.369L39.6123 178.332C38.9123 178.284 38.2036 178.258 37.5015 178.258C36.4646 178.258 35.419 178.313 34.3886 178.419L33.8429 178.476L33.806 179.023C33.7821 179.367 33.7777 179.719 33.7929 180.065C33.919 183.08 34.0407 186.136 34.1625 189.192L34.2994 192.631C34.3755 194.568 34.4538 196.499 34.532 198.414V198.514C34.5472 198.807 34.5777 199.103 34.6233 199.392L34.7038 199.907L35.2233 199.942C35.8081 199.979 36.4015 199.999 36.9884 199.999C38.1427 199.999 39.3079 199.925 40.4535 199.777L40.9905 199.707L41.0231 199.166C41.0426 198.833 41.0426 198.496 41.0231 198.179C40.9709 196.729 40.9078 195.173 40.8426 193.605L40.8144 192.908C40.7426 191.158 40.6731 189.406 40.6166 187.816C40.6122 187.723 40.6492 187.63 40.7122 187.56C40.7774 187.49 40.8665 187.449 40.9622 187.447C41.2361 187.447 41.51 187.473 41.7948 187.525L42.4686 187.638L42.6382 187.097C42.6621 187.023 42.6904 186.949 42.7208 186.877L42.736 186.843L42.7469 186.806C42.7599 186.764 42.7752 186.723 42.7904 186.686C43.4947 185.345 44.7512 184.408 46.2381 184.117L46.2685 184.11L46.2989 184.101C46.5337 184.032 46.775 183.982 47.0228 183.947C47.1054 183.936 47.3902 183.893 47.6336 183.836L48.088 183.732L48.1358 183.269C48.2749 181.943 48.2814 180.597 48.1554 179.271L48.1032 178.728L48.1097 178.732Z" fill="#DE6B9B"/>
<path d="M205.586 192.879L205.27 192.588L204.879 192.764C204.653 192.866 204.429 192.981 204.212 193.108L203.81 193.321L203.79 193.334C202.757 193.984 201.573 194.41 200.364 194.566C200.349 194.566 200.334 194.566 200.318 194.566C200.01 194.566 199.721 194.447 199.501 194.231C199.266 194.001 199.14 193.681 199.153 193.358L199.59 183.771C199.597 183.614 199.701 183.484 199.84 183.445C199.947 183.43 200.401 183.364 200.829 183.31C201.203 183.262 201.564 183.217 201.616 183.208C201.934 183.167 202.281 183.106 202.549 183.045L203.038 182.934L203.057 182.434C203.105 181.145 203.018 179.847 202.794 178.578L202.705 178.067L202.188 178.039C201.953 178.026 201.736 178.019 201.542 178.019C201.449 178.019 201.353 178.019 201.268 178.023L200.216 178.056C200.129 178.056 200.047 178.021 199.977 177.945C199.908 177.876 199.871 177.778 199.875 177.68L200.086 173.002C200.101 172.739 200.101 172.43 200.086 172.161L200.053 171.626L199.523 171.552C198.075 171.352 196.601 171.25 195.14 171.25C194.871 171.25 194.601 171.254 194.332 171.261L193.773 171.276L193.701 171.828C193.66 172.141 193.636 172.458 193.63 172.767L193.488 177.858C193.484 178.047 193.332 178.202 193.143 178.206C193.019 178.21 192.671 178.217 192.286 178.226L190.962 178.254C190.732 178.258 190.458 178.278 190.215 178.304L189.649 178.367L189.634 178.936C189.588 180.634 189.68 182.349 189.904 184.036L189.98 184.617L190.565 184.601C190.838 184.595 191.151 184.571 191.423 184.534L192.895 184.341C192.912 184.341 192.93 184.338 192.945 184.338C193.034 184.338 193.119 184.371 193.186 184.43C193.264 184.499 193.308 184.601 193.304 184.706L193.277 185.64C193.201 188.343 193.123 191.138 193.062 193.727C193.019 194.812 193.262 195.892 193.775 196.866C194.81 198.714 196.682 199.97 198.788 200.227C199.19 200.272 199.597 200.296 200.001 200.296C202.673 200.296 205.22 199.309 207.201 197.51H207.216L207.403 197.336C207.67 197.086 207.925 196.818 208.157 196.538L208.485 196.14L208.175 195.729C207.401 194.703 206.527 193.742 205.583 192.875L205.586 192.879Z" fill="white"/>
<path d="M180.574 184.567C180.574 184.567 180.565 184.547 180.561 184.536L180.545 184.497C180.485 184.351 180.408 184.21 180.322 184.08L180.213 183.899C178.539 181.015 175.43 179.223 172.096 179.223C171.987 179.223 171.878 179.223 171.791 179.228C171.346 179.228 170.9 179.254 170.465 179.302C166.213 179.623 162.564 182.432 161.166 186.462L161.157 186.49C159.607 191.703 160.872 196.533 164.544 199.409C166.507 200.948 168.92 201.764 171.52 201.764C173.97 201.764 176.506 201.035 178.852 199.655C178.869 199.644 178.889 199.635 178.909 199.629L178.969 199.605L179.024 199.57C179.339 199.372 179.643 199.151 179.93 198.914L180.352 198.562L180.078 198.086C179.2 196.566 178.156 195.136 176.974 193.838L176.622 193.451L176.12 193.738C176.011 193.801 175.911 193.857 175.856 193.89C175.787 193.934 175.713 193.973 175.639 194.007L175.617 194.018L175.596 194.029C174.226 194.803 172.689 195.247 171.376 195.247C170.063 195.247 168.905 194.797 168.066 193.899C167.909 193.736 167.774 193.553 167.668 193.351L167.659 193.336L167.557 193.168C167.544 193.149 167.533 193.125 167.524 193.105C166.763 191.153 166.72 188.499 168.335 186.962C169.326 186.156 170.641 185.656 171.772 185.656C172.387 185.656 172.935 185.797 173.398 186.073C173.515 186.143 173.581 186.271 173.572 186.406C173.561 186.543 173.476 186.658 173.35 186.71L170.774 187.771C170.592 187.847 170.385 187.943 170.207 188.034L169.722 188.286L169.885 188.808C170.283 190.071 170.791 191.31 171.398 192.492L171.654 192.99L172.185 192.812C172.378 192.747 172.583 192.666 172.757 192.59C173.783 192.149 174.848 191.705 175.976 191.236L176.665 190.949C178.052 190.371 179.624 189.714 181.028 189.112C181.045 189.106 181.061 189.099 181.078 189.095L181.126 189.082L181.171 189.062C181.3 189.006 181.428 188.945 181.543 188.884L181.993 188.653L181.88 188.16C181.598 186.914 181.156 185.708 180.567 184.567H180.574Z" fill="white"/>
<path d="M150.847 181.269C150.842 180.954 150.823 180.636 150.786 180.328L150.727 179.821L150.221 179.756C148.958 179.595 147.673 179.515 146.401 179.515C145.921 179.515 145.434 179.526 144.953 179.549L144.332 179.58V180.165C144.31 180.249 144.256 180.323 144.184 180.371C144.125 180.41 144.056 180.432 143.986 180.432C143.956 180.432 143.927 180.428 143.91 180.423C143.099 180.199 142.262 180.089 141.423 180.089C138.767 180.089 136.223 181.221 134.45 183.188C131.53 186.336 130.498 190.842 131.756 194.949C133.123 199.359 137.675 201.37 141.325 201.37C142.188 201.37 143.021 201.266 143.799 201.059C143.83 201.051 143.86 201.049 143.893 201.049C143.971 201.049 144.047 201.075 144.108 201.12C144.197 201.185 144.249 201.288 144.251 201.407L144.264 201.751L144.269 201.783C144.364 202.477 144.243 203.17 143.921 203.792C143.916 203.798 143.912 203.803 143.908 203.807C142.93 205.007 141.086 205.207 139.604 205.368C139.365 205.394 139.132 205.42 138.908 205.448C138.149 205.487 137.38 205.507 136.619 205.507C135.665 205.507 134.699 205.477 133.743 205.414C133.73 205.414 133.717 205.414 133.706 205.409L133.673 205.403H133.641C133.465 205.39 133.289 205.383 133.115 205.383C133.002 205.383 132.889 205.385 132.776 205.39L132.293 205.409L132.171 205.877C131.821 207.229 131.619 208.62 131.571 210.016L131.554 210.539L132.063 210.67C132.419 210.761 132.789 210.835 133.165 210.892C135.576 211.233 137.499 211.392 139.217 211.392C144.571 211.392 148.045 209.766 149.845 206.403C150.555 204.972 150.905 203.37 150.853 201.788C150.816 198.466 150.836 194.873 150.853 191.701C150.871 188.416 150.892 184.693 150.847 181.271V181.269ZM137.536 193.953C136.619 192.297 136.595 190.31 137.475 188.632L137.493 188.597L137.506 188.562C137.897 187.54 138.71 186.74 139.736 186.362C140.191 186.251 140.66 186.193 141.127 186.193C142.086 186.193 143.04 186.432 143.882 186.884C143.997 186.947 144.069 187.067 144.069 187.201V193.838C144.069 193.897 144.056 193.953 144.03 194.001C143.943 194.162 143.117 195.575 140.545 195.575C139.328 195.575 138.204 194.968 137.534 193.953H137.536Z" fill="white"/>
<path d="M79.5801 194.621L79.1453 194.344L78.7758 194.705C78.6671 194.812 78.5584 194.923 78.4932 194.988L78.478 195.005C78.378 195.116 78.2671 195.218 78.1497 195.307L78.1302 195.323L78.1128 195.338C77.9063 195.518 77.6432 195.618 77.3693 195.618C77.2258 195.618 77.0867 195.592 76.9541 195.538C76.4498 195.216 76.165 194.649 76.2128 194.047V194.025V194.003C76.2628 190.306 76.5824 186.577 77.1606 182.906L77.3628 181.367C77.4063 181.045 77.4302 180.719 77.4345 180.397L77.4411 179.932L77.0041 179.776C76.0194 179.421 73.8195 178.926 72.4782 178.926C72.0956 178.926 71.8022 178.967 71.5783 179.052L71.287 179.163L71.1892 179.46C71.1631 179.541 71.1087 179.61 71.037 179.656C70.9805 179.693 70.9152 179.71 70.8457 179.71C70.8066 179.71 70.7674 179.704 70.7305 179.691C69.3327 179.208 67.9545 178.963 66.6307 178.963C63.433 178.963 60.7092 180.356 58.7484 183.001C55.5898 187.475 55.6572 193.44 58.9288 197.857C60.6135 199.988 63.2221 201.162 66.2763 201.162C68.3545 201.162 70.4957 200.612 72.3021 199.614C72.3543 199.586 72.4152 199.57 72.4782 199.57C72.5782 199.57 72.6739 199.612 72.7413 199.686L72.7565 199.701C73.876 200.829 75.3672 201.449 76.9563 201.449C78.1584 201.449 79.3171 201.088 80.304 200.409C81.3605 199.694 82.1669 198.69 82.6387 197.507L82.8082 197.079L82.4626 196.775C81.5626 195.986 80.5953 195.26 79.5844 194.618L79.5801 194.621ZM63.5895 191.488V191.466V191.445C63.4069 189.008 63.8264 187.345 64.872 186.36C65.6655 185.617 66.8089 185.256 68.3719 185.256C68.9436 185.256 69.5849 185.304 70.2805 185.401C70.4696 185.427 70.6044 185.599 70.587 185.795C70.3435 188.553 70.2935 191.355 70.437 194.138C70.4479 194.297 70.3522 194.447 70.2109 194.499C69.3262 194.81 68.4023 194.973 67.4545 194.986C67.4111 194.986 67.3654 194.986 67.3219 194.986C66.5437 194.986 65.7807 194.777 65.1133 194.379C64.1677 193.721 63.6004 192.642 63.5938 191.488H63.5895Z" fill="#DE6B9B"/>
<path d="M265.737 184.564C265.737 184.564 265.729 184.545 265.724 184.534L265.709 184.495C265.648 184.349 265.572 184.208 265.485 184.078L265.376 183.897C263.703 181.012 260.594 179.221 257.259 179.221C257.151 179.221 257.042 179.221 256.955 179.226C256.509 179.226 256.064 179.252 255.629 179.299C251.377 179.621 247.727 182.43 246.329 186.46L246.321 186.488C244.771 191.701 246.036 196.531 249.707 199.407C251.67 200.946 254.083 201.762 256.683 201.762C259.133 201.762 261.67 201.033 264.016 199.653C264.033 199.642 264.053 199.633 264.072 199.627L264.133 199.603L264.187 199.568C264.503 199.37 264.807 199.149 265.094 198.912L265.515 198.559L265.242 198.083C264.363 196.564 263.32 195.134 262.137 193.836L261.785 193.449L261.283 193.736C261.174 193.799 261.074 193.855 261.02 193.888C260.95 193.931 260.877 193.971 260.803 194.005L260.781 194.016L260.759 194.027C259.39 194.801 257.853 195.244 256.54 195.244C255.227 195.244 254.068 194.794 253.229 193.897C253.073 193.734 252.938 193.551 252.831 193.349L252.823 193.334L252.72 193.166C252.707 193.147 252.696 193.123 252.688 193.103C251.927 191.151 251.883 188.497 253.499 186.96C254.49 186.154 255.805 185.654 256.935 185.654C257.551 185.654 258.098 185.795 258.561 186.071C258.679 186.14 258.744 186.269 258.735 186.403C258.724 186.54 258.64 186.656 258.514 186.708L255.938 187.769C255.755 187.845 255.549 187.94 255.37 188.032L254.886 188.284L255.049 188.806C255.446 190.069 255.955 191.31 256.562 192.49L256.818 192.988L257.348 192.81C257.542 192.745 257.746 192.664 257.92 192.588C258.946 192.147 260.011 191.703 261.14 191.234L261.829 190.947C263.213 190.369 264.783 189.714 266.192 189.11C266.209 189.103 266.224 189.097 266.242 189.093L266.289 189.079L266.335 189.06C266.463 189.003 266.592 188.943 266.707 188.882L267.157 188.651L267.044 188.158C266.761 186.912 266.32 185.706 265.731 184.562L265.737 184.564Z" fill="white"/>
<path d="M290.671 179.276L290.619 178.732L290.075 178.689C289.882 178.673 289.684 178.665 289.491 178.665C289.297 178.665 289.099 178.673 288.925 178.686C286.984 178.784 285.065 179.343 283.356 180.31C283.3 180.345 283.237 180.362 283.171 180.362C283.124 180.362 283.078 180.354 283.034 180.334C282.934 180.293 282.858 180.208 282.828 180.106C282.813 180.019 282.804 179.93 282.802 179.83C282.782 179.432 282.756 179.126 282.724 178.893L282.652 178.369L282.124 178.332C281.424 178.284 280.715 178.258 280.013 178.258C278.976 178.258 277.93 178.313 276.9 178.419L276.354 178.476L276.317 179.023C276.293 179.367 276.289 179.717 276.304 180.065C276.43 183.082 276.552 186.14 276.674 189.199L276.811 192.666C276.887 194.592 276.963 196.51 277.041 198.414V198.516C277.056 198.809 277.087 199.105 277.133 199.394L277.215 199.909L277.735 199.944C278.319 199.981 278.913 200.001 279.5 200.001C280.654 200.001 281.819 199.927 282.965 199.779L283.502 199.709L283.532 199.168C283.552 198.836 283.552 198.501 283.532 198.183C283.48 196.733 283.417 195.177 283.352 193.61L283.324 192.912C283.252 191.162 283.182 189.41 283.126 187.821C283.121 187.727 283.158 187.634 283.221 187.564C283.287 187.495 283.376 187.453 283.471 187.451C283.745 187.451 284.019 187.477 284.304 187.53L284.978 187.643L285.147 187.101C285.171 187.027 285.2 186.953 285.23 186.882L285.245 186.847L285.256 186.81C285.269 186.769 285.284 186.727 285.3 186.69C286.004 185.349 287.26 184.412 288.747 184.121L288.778 184.114L288.808 184.106C289.043 184.036 289.284 183.986 289.532 183.951C289.615 183.941 289.899 183.897 290.143 183.841L290.597 183.736L290.645 183.273C290.784 181.947 290.791 180.602 290.665 179.276H290.671Z" fill="white"/>
<path d="M117.331 177.358L116.794 177.226L116.574 177.734C116.455 178.015 116.346 178.304 116.255 178.595L114.911 182.912C114.272 184.975 113.626 187.053 113 189.049C112.955 189.197 112.818 189.299 112.653 189.301C112.503 189.301 112.37 189.206 112.32 189.06L108.698 178.499L108.69 178.478C108.59 178.173 108.466 177.871 108.322 177.58L108.157 177.243L107.783 177.217C106.888 177.154 105.977 177.121 105.079 177.121C104.181 177.121 103.183 177.156 102.244 177.226L101.86 177.254L101.699 177.604C101.551 177.926 101.425 178.26 101.32 178.597C100.82 180.226 100.297 181.904 99.7727 183.584L99.764 183.614C99.1944 185.44 98.6227 187.271 98.0793 189.043C98.0336 189.19 97.8988 189.293 97.7358 189.297C97.5836 189.297 97.4467 189.201 97.3967 189.056C96.7511 187.212 96.0881 185.267 95.4446 183.384L95.3946 183.238C94.849 181.641 94.3055 180.049 93.7686 178.506L93.7599 178.482L93.7512 178.463C93.6469 178.16 93.5447 177.904 93.4469 177.7L93.223 177.221L92.7078 177.343C91.0057 177.743 89.3318 178.304 87.7319 179.008L87.2297 179.23L87.3623 179.762C87.4319 180.047 87.521 180.332 87.6167 180.593C89.3405 185.627 91.1057 190.764 92.8317 195.792L93.8273 198.692C93.936 199.009 94.0664 199.327 94.2164 199.633L94.3816 199.968L94.7533 199.996C95.7185 200.068 96.7011 200.103 97.6684 200.103C98.7771 200.103 99.8966 200.055 101.001 199.964L101.388 199.931L101.544 199.577C101.679 199.268 101.797 198.946 101.888 198.631C102.599 196.379 103.336 194.001 104.046 191.703L104.816 189.223C104.862 189.075 104.999 188.975 105.142 188.973C105.303 188.973 105.446 189.075 105.499 189.216C106.096 190.958 106.764 192.895 107.418 194.799L108.764 198.703C108.874 199.027 109.005 199.344 109.155 199.649L109.324 199.994L109.707 200.014C110.637 200.059 111.583 200.083 112.516 200.083C113.646 200.083 114.792 200.049 115.92 199.981L116.315 199.957L116.476 199.596C116.615 199.283 116.735 198.957 116.826 198.638C117.841 195.379 118.861 192.105 119.876 188.836L122.461 180.534C122.533 180.299 122.604 180.019 122.656 179.76L122.761 179.241L122.274 179.032C120.676 178.347 119.013 177.786 117.328 177.369L117.331 177.358Z" fill="#DE6B9B"/>
<path d="M24.2064 184.554C23.6412 174.069 17.5828 171.963 7.98756 171.963C7.11803 171.963 6.20068 171.98 5.17898 172.015C4.60292 172.035 3.86817 172.065 3.27037 172.132L2.76387 172.189L2.69865 172.695C2.65518 173.028 2.62909 173.365 2.62257 173.695L2.04651 198.694C2.03781 198.996 2.04651 199.307 2.07042 199.612L2.11172 200.142L2.63996 200.207C4.39206 200.425 6.17677 200.533 7.94191 200.533C8.57232 200.533 9.21142 200.52 9.82226 200.492L10.5548 200.481C15.1133 200.427 18.5849 199.162 20.8718 196.72L21.8978 195.623H21.7652C23.6369 192.981 24.4564 189.266 24.2064 184.551V184.554ZM8.66144 193.577C8.731 190.955 8.79404 188.186 8.85491 185.508L9.00708 178.784C9.01143 178.599 9.1549 178.449 9.3375 178.436C10.0723 178.382 10.72 178.354 11.3178 178.354C13.6482 178.354 15.1286 178.773 16.1176 179.717C17.3524 180.893 17.8197 182.823 17.735 186.38C17.6589 189.495 17.3567 191.66 16.0916 192.84C15.1959 193.675 13.8547 194.016 11.4613 194.016C10.6635 194.016 9.77009 193.979 9.00273 193.944C8.80926 193.936 8.65709 193.771 8.66144 193.577Z" fill="#DE6B9B"/>
<path d="M236.93 195.91C236.825 191.153 236.693 185.234 232.365 182.445C230.758 181.454 228.913 180.93 227.026 180.93C226.043 180.93 225.065 181.073 224.106 181.358C224.091 181.362 224.076 181.367 224.061 181.369L224.02 181.378C223.991 181.384 223.963 181.388 223.933 181.388C223.856 181.388 223.783 181.365 223.722 181.319C223.637 181.256 223.585 181.158 223.58 181.047C223.543 180.16 223.515 179.26 223.485 178.354L223.478 178.167C223.43 176.654 223.376 174.939 223.263 173.326V172.734L222.67 172.682C221.909 172.615 221.135 172.58 220.37 172.58C219.604 172.58 218.831 172.615 218.07 172.682L217.526 172.73L217.479 173.274C217.448 173.617 217.437 173.967 217.444 174.31C217.502 177.606 217.544 180.954 217.585 184.191C217.652 189.529 217.722 195.051 217.868 200.533V201.135L218.47 201.183C219.181 201.24 219.9 201.268 220.613 201.268C221.637 201.268 222.67 201.209 223.687 201.094L224.235 201.031L224.265 200.479C224.283 200.159 224.283 199.838 224.265 199.529C224.226 198.464 224.185 197.381 224.146 196.292L224.026 193.073C223.972 191.599 223.917 190.136 223.87 188.716C223.865 188.623 223.9 188.532 223.952 188.475C224.796 187.612 225.972 187.119 227.178 187.119C227.267 187.119 227.359 187.121 227.452 187.127C228.163 187.166 228.841 187.453 229.363 187.936L229.38 187.951C231.504 189.775 231.517 193.501 231.528 196.79V196.846C231.532 197.788 231.537 198.679 231.584 199.509V199.614C231.587 199.959 231.597 200.229 231.613 200.433L231.652 200.938L232.152 201.025C233.234 201.212 234.341 201.305 235.441 201.305C235.673 201.305 235.908 201.301 236.141 201.292L236.686 201.272L236.762 200.731C236.808 200.401 236.845 200.007 236.86 199.677C236.902 198.586 236.956 197.012 236.932 195.962V195.905L236.93 195.91Z" fill="white"/>
<path d="M25.7367 200.907C23.1847 203.631 19.387 205.042 14.4351 205.103L13.7046 205.114C12.9873 205.122 12.2395 205.133 11.4874 205.133C9.52657 205.181 7.56578 205.031 5.63326 204.685C5.44848 204.646 5.27457 204.561 5.12676 204.442L1.25736 201.194L1.24866 201.183C1.14649 201.092 1.05954 200.983 0.994324 200.862C0.976933 200.831 0.961717 200.799 0.944326 200.766C0.874764 200.625 0.822592 200.477 0.785637 200.322C0.783464 200.309 0.772594 200.299 0.772594 200.281C0.729118 200.072 0.700858 199.862 0.685642 199.649C0.681294 199.592 0.674773 199.533 0.674773 199.472C0.666077 199.229 0.657382 198.966 0.666077 198.664L1.24214 173.674C1.24649 173.382 1.26388 173.126 1.28562 172.884C1.29214 172.819 1.29866 172.756 1.30518 172.695C1.32474 172.513 1.35518 172.335 1.39431 172.156C1.40083 172.126 1.40518 172.091 1.4117 172.063C1.453 171.902 1.50735 171.743 1.57691 171.593C1.5943 171.554 1.61386 171.524 1.63125 171.493C1.6856 171.395 1.74864 171.304 1.82472 171.222C1.83777 171.208 1.85298 171.178 1.86168 171.172C1.8682 171.165 1.87907 171.161 1.88559 171.152C1.93776 171.106 1.99428 171.065 2.05515 171.03C2.08123 171.011 2.10949 170.993 2.13775 170.978C2.2334 170.93 2.33557 170.898 2.43991 170.878C3.32901 170.739 4.22679 170.663 5.12458 170.652C5.47457 170.639 5.82238 170.63 6.17019 170.622L6.48974 170.615C6.73321 170.606 6.97668 170.602 7.22232 170.602H8.65921C8.92659 170.604 9.1918 170.609 9.457 170.617H9.69178C10.0287 170.628 10.3657 170.641 10.7026 170.659L10.9656 170.674C11.2134 170.689 11.4613 170.706 11.7091 170.726C11.8265 170.735 11.9395 170.745 12.0547 170.756C12.2764 170.776 12.496 170.798 12.7156 170.824L13.0612 170.865C13.2916 170.893 13.5199 170.926 13.7481 170.961C13.8438 170.976 13.9394 170.989 14.0351 171.002C14.3524 171.054 14.6655 171.111 14.9763 171.174C15.0176 171.182 15.0568 171.191 15.0959 171.2C15.3633 171.256 15.6263 171.317 15.8872 171.385C15.9872 171.411 16.0806 171.439 16.1828 171.465C16.3893 171.522 16.5871 171.578 16.7893 171.641C16.8936 171.674 17.0023 171.708 17.1023 171.741C17.298 171.806 17.4914 171.876 17.6827 171.95C17.7762 171.985 17.8697 172.019 17.9632 172.056C18.2045 172.152 18.4392 172.256 18.6718 172.365C18.7088 172.382 18.7479 172.398 18.7849 172.417C19.0501 172.545 19.3109 172.682 19.5631 172.83C19.637 172.871 19.7087 172.919 19.7826 172.963C19.9631 173.071 20.1392 173.182 20.3131 173.3C20.4 173.358 20.4848 173.419 20.5696 173.48C20.7326 173.595 20.8826 173.715 21.0348 173.839C21.0869 173.88 21.1369 173.913 21.1869 173.956L25.0563 177.204C27.5258 179.276 29.1562 182.567 29.4344 187.734C29.7431 193.523 28.4975 197.96 25.728 200.916L25.7367 200.907ZM20.3935 196.277C22.7738 193.74 23.8325 189.808 23.5542 184.588C22.9847 174.004 16.9219 172.267 5.20066 172.665C4.60939 172.685 3.90724 172.715 3.34422 172.778C3.30292 173.087 3.27901 173.398 3.27249 173.708L2.69642 198.712C2.68773 198.994 2.69642 199.277 2.71816 199.559C5.07024 199.851 7.44405 199.944 9.81134 199.84L10.5461 199.829C14.922 199.777 18.2349 198.579 20.3957 196.275H20.3935V196.277ZM16.5676 179.247C17.9501 180.565 18.4784 182.636 18.3871 186.399C18.3066 189.684 17.9697 191.986 16.5371 193.321C15.3807 194.397 13.7177 194.671 11.4634 194.671C10.7026 194.671 9.8722 194.64 8.97442 194.597C8.42444 194.573 7.9962 194.112 8.01141 193.562C8.08967 190.586 8.15923 187.471 8.2288 184.391L8.35705 178.771C8.37009 178.252 8.77442 177.828 9.29179 177.789C13.0764 177.506 15.1872 177.93 16.5719 179.247H16.5676ZM16.3654 186.349C16.3741 185.982 16.3763 185.64 16.3676 185.308C16.3676 185.208 16.3589 185.106 16.3589 185.006C16.3545 184.786 16.348 184.58 16.3371 184.384C16.3306 184.271 16.3219 184.167 16.3132 184.06C16.3002 183.888 16.285 183.721 16.2676 183.562C16.2567 183.462 16.2371 183.347 16.2263 183.26C16.2132 183.171 16.198 183.088 16.185 183.006C15.5307 182.967 14.8742 182.962 14.2177 182.997L14.1112 187.686C14.0764 189.262 14.0394 190.847 14.0046 192.416C14.0329 192.41 14.0568 192.401 14.0851 192.392C14.2503 192.347 14.4133 192.288 14.5698 192.216C14.6177 192.195 14.6655 192.173 14.7133 192.147C14.872 192.064 15.022 191.964 15.1568 191.845C15.2133 191.788 15.2654 191.727 15.3154 191.662C15.3611 191.614 15.4024 191.562 15.4415 191.51C15.4872 191.44 15.5285 191.368 15.5654 191.295C15.6024 191.232 15.635 191.186 15.672 191.105C15.7111 191.023 15.7437 190.925 15.7785 190.834C15.8089 190.758 15.8393 190.688 15.8676 190.603C15.9002 190.499 15.9285 190.379 15.9589 190.264C15.9828 190.175 16.0067 190.097 16.0285 189.995C16.0567 189.866 16.0785 189.721 16.1024 189.582C16.1198 189.482 16.1415 189.388 16.1567 189.279C16.1785 189.127 16.1958 188.953 16.2154 188.788C16.2285 188.671 16.2458 188.562 16.2545 188.436C16.2741 188.238 16.285 188.016 16.3002 187.799C16.3067 187.686 16.3176 187.584 16.3241 187.464C16.3415 187.114 16.3567 186.747 16.3654 186.353H16.3698L16.3654 186.349Z" fill="#212121"/>
<path d="M53.266 187.312C53.2334 187.477 53.1617 187.632 53.053 187.762C52.5247 188.251 51.84 188.534 51.1204 188.562C50.9378 188.582 50.7574 188.616 50.5792 188.662C49.4879 188.86 48.5293 189.503 47.9336 190.438C47.9054 190.521 47.8728 190.601 47.8402 190.679C47.8249 190.742 47.8054 190.803 47.7793 190.862C47.7032 191.26 47.5097 191.627 47.2228 191.914C47.1532 191.973 47.075 192.021 46.9902 192.06C46.6424 192.205 46.262 192.253 45.8881 192.203C45.9381 193.549 45.9968 194.979 46.0554 196.405C46.125 198.112 46.1946 199.816 46.2489 201.37C46.3293 202.703 46.262 204.118 45.1381 204.3C43.6469 204.518 42.1426 204.629 40.6361 204.633C39.8427 204.644 39.0471 204.59 38.2623 204.47C38.0558 204.427 37.8623 204.333 37.7015 204.198L33.8321 200.951C33.7951 200.92 33.7625 200.885 33.7321 200.851C33.6668 200.777 33.6125 200.696 33.5669 200.609C33.556 200.59 33.5495 200.564 33.5364 200.544C33.4995 200.47 33.4647 200.394 33.4364 200.316C33.4212 200.277 33.4125 200.233 33.3995 200.192C33.3799 200.127 33.356 200.062 33.3386 199.99C33.3256 199.942 33.3212 199.905 33.3082 199.842C33.2951 199.777 33.2777 199.703 33.269 199.648C33.2603 199.594 33.256 199.555 33.2473 199.492C33.2386 199.431 33.2256 199.353 33.2212 199.307C33.2169 199.262 33.2103 199.22 33.2103 199.177C33.2038 199.114 33.193 199.049 33.193 198.99V198.89C33.1886 198.831 33.1821 198.768 33.1821 198.716V198.505L33.1734 198.499C33.0647 195.849 32.9582 193.168 32.8538 190.482C32.7169 187.021 32.5799 183.554 32.4365 180.138C32.4234 179.825 32.4234 179.554 32.4299 179.299C32.4299 179.236 32.4365 179.171 32.4365 179.11C32.443 178.717 32.5169 178.326 32.6538 177.958C32.6691 177.926 32.6843 177.891 32.7017 177.858C32.7604 177.732 32.8408 177.617 32.9364 177.517C33.0799 177.38 33.2582 177.282 33.4495 177.236C35.3907 176.706 39.8166 176.989 40.3144 177.023H40.3492C40.4274 177.03 40.5057 177.047 40.5796 177.073C40.7165 177.121 40.8448 177.193 40.9557 177.286H40.9644L42.0817 178.223C42.1839 178.189 42.2969 178.158 42.3969 178.123C42.5382 178.076 42.6795 178.028 42.823 177.982C43.0447 177.912 43.2708 177.852 43.5012 177.793C43.6425 177.756 43.7816 177.719 43.9251 177.686C44.1794 177.628 44.4381 177.582 44.6968 177.539C44.8229 177.517 44.9446 177.491 45.0707 177.473C45.4598 177.417 45.8511 177.371 46.2467 177.345C46.2707 177.341 46.325 177.334 46.3989 177.326L46.4772 177.319C46.5402 177.313 46.6076 177.302 46.6924 177.302C46.7359 177.295 46.7837 177.295 46.8315 177.295C46.9141 177.289 46.9989 177.289 47.0902 177.289H47.2684C47.3619 177.289 47.4576 177.297 47.5576 177.304C47.6206 177.31 47.6836 177.315 47.7467 177.321C47.8532 177.332 47.9597 177.352 48.0619 177.373C48.1184 177.384 48.1771 177.393 48.2336 177.406C48.364 177.439 48.4923 177.48 48.6162 177.532C48.6401 177.543 48.6662 177.547 48.6879 177.558C48.8162 177.615 48.9358 177.689 49.0444 177.778L52.916 181.025C53.0486 181.134 53.1551 181.273 53.2247 181.43C53.253 181.497 53.2747 181.567 53.2899 181.638C53.5682 183.523 53.5616 185.438 53.2682 187.319L53.266 187.312ZM47.5141 179.338C47.1597 179.31 46.8054 179.31 46.4511 179.338C44.6012 179.432 42.7991 179.956 41.1883 180.869C40.9144 181.036 40.5752 181.062 40.2796 180.941C39.984 180.819 39.7622 180.565 39.684 180.254C39.6601 180.125 39.647 179.997 39.6427 179.867C39.6209 179.454 39.597 179.175 39.5709 178.986C37.8688 178.867 36.158 178.895 34.4603 179.071C34.4386 179.395 34.4342 179.719 34.4472 180.041C34.5907 183.458 34.7277 186.927 34.8646 190.39C34.9711 193.075 35.0755 195.755 35.1842 198.403V198.486C35.1972 198.757 35.2255 199.027 35.2668 199.294C36.9711 199.405 38.6797 199.351 40.3731 199.135C40.3905 198.827 40.3905 198.518 40.3731 198.212C40.3166 196.638 40.247 194.938 40.1774 193.231C40.1035 191.386 40.0274 189.527 39.9688 187.849C39.9601 187.582 40.0557 187.321 40.2383 187.125C40.4209 186.929 40.6752 186.814 40.9426 186.803C41.2665 186.803 41.5882 186.832 41.9056 186.89L42.0208 186.91C42.0513 186.812 42.0882 186.716 42.1295 186.621C42.1513 186.549 42.1795 186.477 42.21 186.408C43.0012 184.888 44.4403 183.812 46.1185 183.484C46.3859 183.406 46.6576 183.347 46.9337 183.31C47.0837 183.288 47.3141 183.251 47.4923 183.21C47.6271 181.925 47.6336 180.63 47.5097 179.343L47.5141 179.338Z" fill="#212121"/>
<path d="M87.9602 200.233C88.0081 201.39 86.9081 203.401 84.9756 204.766C83.7561 205.622 82.2996 206.077 80.8084 206.072C79.1324 206.083 77.5085 205.505 76.2151 204.437L76.1716 204.401C72.187 206.305 66.7677 206.433 63.0917 203.351L59.2202 200.103C59.0658 199.972 58.9202 199.827 58.7702 199.685C58.6876 199.605 58.5984 199.533 58.518 199.451C58.2767 199.203 58.0463 198.944 57.8333 198.672C54.216 193.788 54.1465 187.132 57.6615 182.173C57.855 181.915 58.0528 181.667 58.2593 181.428C58.3267 181.349 58.4006 181.28 58.4702 181.204C58.6115 181.052 58.7528 180.893 58.9006 180.747C58.9137 180.734 58.9137 180.73 58.9376 180.708C58.9615 180.684 58.9897 180.667 59.0136 180.645C59.3332 180.338 59.6701 180.052 60.0245 179.784C60.0636 179.754 60.0984 179.723 60.1397 179.695C60.4962 179.436 60.8657 179.202 61.2505 178.986C61.3201 178.947 61.3896 178.908 61.4592 178.871C61.8396 178.669 62.2309 178.491 62.6331 178.336C62.7026 178.308 62.7744 178.286 62.8439 178.26C63.2635 178.106 63.6917 177.98 64.1243 177.88C64.1504 177.873 64.1765 177.871 64.2026 177.865C64.6373 177.771 65.0743 177.704 65.5155 177.663C65.5764 177.656 65.6373 177.643 65.6981 177.643C66.1503 177.608 66.6025 177.599 67.0568 177.615C67.1437 177.617 67.2285 177.626 67.3176 177.626C67.7828 177.649 68.2459 177.699 68.7067 177.773C68.7828 177.786 68.8567 177.802 68.9328 177.815C69.4349 177.902 69.9306 178.017 70.4219 178.156C70.5327 178.063 70.6523 177.982 70.7805 177.915C72.6305 176.941 77.3694 178.378 78.0954 178.76C78.1672 178.799 78.2346 178.845 78.2976 178.895C78.3063 178.902 78.315 178.906 78.3237 178.912L82.1931 182.16C82.567 182.475 82.817 183.11 82.5822 184.799L82.38 186.34C82.03 188.958 81.6714 191.64 81.517 194.268L81.5388 194.286C81.9083 194.547 82.2866 194.831 82.6409 195.125L82.6778 195.155L86.5472 198.401C87.3103 199.046 87.9254 199.714 87.9537 200.229L87.9602 200.233ZM82.0279 197.266C81.1518 196.496 80.2171 195.797 79.2302 195.17C79.128 195.27 79.0237 195.377 78.9606 195.44C78.8324 195.581 78.6911 195.712 78.5389 195.827C78.0194 196.283 77.2824 196.399 76.6498 196.118C75.9129 195.675 75.4912 194.853 75.5586 193.997C75.6086 190.253 75.9281 186.521 76.5129 182.823L76.7151 181.282C76.7564 180.986 76.7781 180.688 76.7824 180.391C75.5477 179.945 72.6087 179.358 71.8087 179.662C71.7348 179.889 71.5848 180.08 71.3849 180.206C71.1262 180.369 70.8066 180.406 70.5175 180.306C65.9894 178.739 61.8896 179.858 59.281 183.375C56.2899 187.61 56.3551 193.286 59.4397 197.451C62.4765 201.29 68.1785 201.144 71.987 199.04C72.137 198.957 72.3066 198.914 72.4761 198.916C72.7587 198.916 73.0261 199.033 73.2174 199.24C75.0108 201.046 77.8389 201.312 79.9367 199.868C80.8801 199.229 81.6105 198.323 82.0322 197.264L82.0279 197.266ZM70.3675 184.751C70.9023 184.827 71.2827 185.31 71.2305 185.849C70.9892 188.588 70.9392 191.34 71.0805 194.088C71.1131 194.538 70.8436 194.955 70.4197 195.112C69.4697 195.444 68.4741 195.623 67.4676 195.636C66.5133 195.666 65.5721 195.42 64.7525 194.929C63.62 194.151 62.9417 192.868 62.933 191.495C62.7331 188.847 63.2222 187.012 64.4199 185.886C65.659 184.723 67.5524 184.367 70.3653 184.756L70.3675 184.751ZM69.0154 193.412C68.9937 192.953 68.9806 192.49 68.9741 192.029V191.879C68.8458 192.397 68.7828 192.927 68.785 193.462C68.8654 193.444 68.9458 193.431 69.0154 193.414V193.412Z" fill="#212121"/>
<path d="M127.641 184.169L125.056 192.471C124.041 195.742 123.022 199.014 122.011 202.246C121.7 203.342 121.159 204.579 120.191 204.546C117.844 204.714 115.485 204.718 113.135 204.559H113.116C112.848 204.559 112.589 204.459 112.392 204.281L108.522 201.033C108.507 201.02 108.498 201.003 108.483 200.988C108.351 200.868 108.235 200.733 108.138 200.583C108.122 200.562 108.109 200.535 108.094 200.514C107.99 200.344 107.894 200.17 107.814 199.99C107.809 199.979 107.798 199.97 107.798 199.962C107.557 200.731 107.316 201.498 107.079 202.246C106.766 203.342 106.283 204.6 105.251 204.542C104.031 204.624 102.516 204.709 101.057 204.709C100.107 204.718 99.1596 204.668 98.2162 204.555C97.9423 204.564 97.6749 204.466 97.4727 204.283L93.6033 201.035C93.5881 201.022 93.5751 201.001 93.5599 200.988C93.4686 200.905 93.386 200.814 93.3121 200.716C93.2968 200.696 93.2816 200.681 93.2686 200.662C93.1751 200.529 93.0903 200.39 93.0142 200.249C92.9925 200.207 92.9729 200.166 92.9512 200.122C92.8925 200.005 92.836 199.883 92.7838 199.757C92.7643 199.712 92.7447 199.666 92.7251 199.618C92.6599 199.455 92.5969 199.288 92.5404 199.12L91.5447 196.223C89.8166 191.195 88.0536 186.056 86.3363 181.045C86.2863 180.917 86.2384 180.78 86.1928 180.641C86.1798 180.599 86.1667 180.556 86.1537 180.512C86.1232 180.417 86.095 180.323 86.0689 180.223C86.0558 180.169 86.0428 180.117 86.0298 180.065C86.008 179.975 85.9885 179.891 85.9732 179.804C85.9624 179.747 85.9559 179.693 85.9493 179.639C85.9385 179.556 85.9319 179.475 85.9254 179.395V179.234C85.9254 179.158 85.9319 179.082 85.9406 179.006C85.9472 178.962 85.9515 178.906 85.9624 178.86C85.9798 178.786 86.0015 178.712 86.0319 178.643C86.045 178.604 86.0602 178.565 86.0776 178.526C86.1232 178.441 86.1776 178.362 86.245 178.291C86.258 178.276 86.2667 178.258 86.2797 178.243C86.3732 178.152 86.4819 178.078 86.5993 178.021C88.6753 177.041 90.8643 176.323 93.1186 175.887C93.2708 175.873 93.4229 175.889 93.5686 175.934C93.6077 175.945 93.6447 175.96 93.6816 175.976C93.786 176.019 93.8859 176.076 93.9751 176.143C93.9925 176.156 94.0142 176.16 94.0316 176.176L97.9032 179.423C98.3879 179.939 98.7379 180.567 98.9205 181.251C98.927 181.265 98.9379 181.282 98.9379 181.297L98.9988 181.473L99.0683 181.251C99.3901 180.219 99.7096 179.195 100.018 178.184C100.088 177.96 100.157 177.758 100.227 177.571C100.249 177.51 100.273 177.458 100.297 177.399C100.344 177.278 100.394 177.16 100.444 177.054C100.47 176.993 100.499 176.943 100.527 176.891C100.573 176.797 100.625 176.713 100.675 176.632C100.703 176.589 100.731 176.543 100.76 176.502C100.812 176.432 100.868 176.365 100.927 176.3C100.947 176.278 100.964 176.25 100.986 176.23C100.99 176.226 100.997 176.223 101.001 176.219C101.099 176.126 101.21 176.05 101.331 175.991C101.357 175.98 101.383 175.969 101.41 175.96C101.529 175.913 101.657 175.887 101.788 175.882C103.933 175.693 106.09 175.689 108.235 175.871C108.361 175.876 108.485 175.9 108.603 175.945C108.64 175.958 108.674 175.98 108.709 175.997C108.785 176.034 108.857 176.078 108.924 176.128C108.94 176.141 108.959 176.145 108.974 176.158L112.844 179.406C113.329 179.925 113.674 180.558 113.855 181.247L113.872 181.295L113.931 181.465L114.952 178.176C115.022 177.947 115.094 177.743 115.163 177.552C115.187 177.489 115.211 177.436 115.235 177.378C115.281 177.256 115.331 177.134 115.383 177.032C115.411 176.971 115.442 176.919 115.472 176.863C115.513 176.773 115.565 176.689 115.613 176.613C115.65 176.563 115.683 176.517 115.713 176.473C115.759 176.41 115.809 176.35 115.863 176.291C115.881 176.271 115.898 176.245 115.918 176.226C115.937 176.206 115.95 176.202 115.981 176.176C116.011 176.15 116.042 176.123 116.072 176.102C116.12 176.067 116.168 176.037 116.22 176.01C116.25 175.993 116.283 175.978 116.313 175.963C116.37 175.941 116.428 175.923 116.487 175.91C116.518 175.904 116.544 175.891 116.574 175.891C116.668 175.878 116.761 175.876 116.855 175.884H116.878C116.991 175.895 117.124 175.923 117.25 175.943C117.359 175.96 117.448 175.971 117.561 175.993C117.702 176.021 117.859 176.063 118.011 176.1C118.128 176.128 118.239 176.15 118.361 176.182C118.515 176.219 118.681 176.273 118.841 176.321C118.972 176.36 119.1 176.393 119.233 176.436C119.396 176.486 119.563 176.545 119.73 176.6C119.863 176.645 119.998 176.686 120.135 176.732C120.317 176.795 120.496 176.86 120.676 176.923C120.798 176.967 120.92 177.01 121.039 177.054C121.241 177.128 121.433 177.202 121.626 177.276C121.717 177.31 121.815 177.345 121.904 177.382C122.461 177.604 122.974 177.813 123.378 177.989C123.487 178.034 123.589 178.095 123.68 178.171L127.55 181.419C128.198 181.962 127.969 183.099 127.639 184.164L127.641 184.169ZM122.02 179.621C120.45 178.947 118.831 178.404 117.174 177.993C117.061 178.254 116.963 178.519 116.878 178.789L115.535 183.106C114.896 185.171 114.25 187.249 113.622 189.245C113.492 189.662 113.107 189.947 112.67 189.953C112.233 189.962 111.84 189.686 111.7 189.271L108.083 178.721L108.068 178.682C107.974 178.404 107.864 178.13 107.733 177.867C105.92 177.739 104.101 177.743 102.288 177.876C102.153 178.171 102.036 178.478 101.94 178.791C101.438 180.419 100.916 182.097 100.39 183.78C99.8183 185.614 99.2422 187.456 98.6966 189.236C98.5683 189.653 98.1879 189.94 97.751 189.949H97.7314C97.301 189.949 96.9184 189.677 96.7771 189.271C96.1185 187.39 95.4533 185.436 94.7881 183.491C94.2381 181.882 93.6903 180.275 93.149 178.721C93.1425 178.708 93.1338 178.693 93.1338 178.68C93.0208 178.356 92.9273 178.13 92.8556 177.98C91.1882 178.371 89.56 178.917 87.9927 179.608C88.0579 179.871 88.1384 180.13 88.2318 180.384C89.9557 185.419 91.7186 190.555 93.4468 195.583L94.4424 198.483C94.5424 198.779 94.662 199.068 94.8011 199.346C96.8489 199.496 98.9031 199.485 100.949 199.314C101.075 199.027 101.181 198.733 101.268 198.433C102.029 196.025 102.814 193.481 103.575 191.027L104.194 189.025C104.325 188.61 104.707 188.323 105.144 188.316C105.579 188.316 105.968 188.59 106.116 189.001C106.714 190.742 107.379 192.677 108.035 194.581L109.381 198.488C109.481 198.783 109.6 199.075 109.74 199.355C111.785 199.457 113.835 199.446 115.881 199.322C116.009 199.036 116.118 198.738 116.205 198.436C117.22 195.177 118.239 191.903 119.254 188.634L121.839 180.334C121.911 180.102 121.976 179.834 122.017 179.623L122.02 179.621Z" fill="#212121"/>
<path d="M156.092 194.936C156.075 198.294 156.057 201.768 156.092 205.018C156.142 206.848 155.735 208.661 154.912 210.294C152.42 214.95 147.366 216 142.956 216C140.906 215.972 138.86 215.796 136.834 215.476C135.995 215.426 135.184 215.17 134.469 214.726L130.6 211.478C130.6 211.478 130.587 211.459 130.578 211.45C130.48 211.363 130.397 211.261 130.337 211.148C130.317 211.115 130.302 211.083 130.287 211.048C130.228 210.911 130.195 210.761 130.195 210.611C130.182 208.648 130.478 206.696 131.074 204.824C131.132 204.687 131.217 204.561 131.319 204.455C131.332 204.442 131.339 204.42 131.352 204.407C131.384 204.377 131.417 204.346 131.452 204.32C132.195 204.001 133.015 203.898 133.815 204.022C134.291 204.048 134.752 204.07 135.195 204.085C135.349 204.096 135.489 204.096 135.639 204.096C135.921 204.103 136.208 204.114 136.475 204.114H137.651C137.812 204.109 137.96 204.101 138.115 204.096C138.301 204.09 138.495 204.083 138.673 204.072C138.245 203.801 137.836 203.501 137.449 203.177L133.58 199.929C133.549 199.905 133.526 199.877 133.497 199.851C133.213 199.605 132.939 199.346 132.682 199.072C132.608 198.994 132.534 198.918 132.465 198.838C132.187 198.529 131.926 198.205 131.687 197.864C131.671 197.84 131.658 197.816 131.643 197.794C131.426 197.473 131.228 197.136 131.052 196.79C131.004 196.697 130.956 196.605 130.91 196.505C130.728 196.129 130.574 195.742 130.447 195.344C129.043 190.749 130.189 185.753 133.456 182.232C133.573 182.108 133.697 181.982 133.815 181.869C133.93 181.756 134.056 181.66 134.176 181.554C134.33 181.412 134.486 181.273 134.647 181.143C134.839 180.988 135.032 180.847 135.234 180.708C135.406 180.591 135.569 180.471 135.739 180.365C135.943 180.236 136.156 180.123 136.369 180.008C136.541 179.915 136.712 179.817 136.888 179.734C137.108 179.632 137.334 179.545 137.562 179.458C137.738 179.391 137.915 179.315 138.095 179.256C138.33 179.18 138.571 179.123 138.812 179.062C138.991 179.017 139.167 178.965 139.347 178.93C139.601 178.88 139.86 178.854 140.119 178.821C140.291 178.799 140.462 178.769 140.638 178.756C140.927 178.734 141.221 178.743 141.514 178.743C141.662 178.743 141.808 178.736 141.958 178.743C142.408 178.765 142.856 178.812 143.299 178.889C143.356 178.793 143.423 178.704 143.501 178.626C143.512 178.612 143.519 178.599 143.529 178.589C143.54 178.578 143.556 178.571 143.566 178.562C143.619 178.517 143.673 178.478 143.729 178.443C143.758 178.426 143.782 178.408 143.812 178.393C143.908 178.345 144.01 178.31 144.114 178.293C146.019 177.884 150.162 178.365 150.97 178.465C151.09 178.478 151.205 178.51 151.314 178.558C151.347 178.576 151.377 178.595 151.407 178.617C151.462 178.643 151.512 178.676 151.56 178.71L155.429 181.958C155.972 182.688 156.209 183.601 156.09 184.501C156.129 187.879 156.109 191.473 156.09 194.938L156.092 194.936ZM150.201 191.695C150.221 188.225 150.238 184.636 150.194 181.275C150.19 180.982 150.171 180.691 150.138 180.399C148.429 180.182 146.705 180.115 144.984 180.197V180.223C144.94 180.504 144.779 180.754 144.542 180.91C144.306 181.069 144.012 181.119 143.734 181.047C140.547 180.171 137.136 181.169 134.926 183.625C132.154 186.614 131.182 190.851 132.376 194.749C133.839 199.464 139.477 201.52 143.632 200.42C143.932 200.342 144.249 200.403 144.497 200.588C144.745 200.772 144.892 201.062 144.901 201.37L144.912 201.683C145.027 202.518 144.875 203.37 144.479 204.114C144.458 204.146 144.436 204.177 144.412 204.207C143.264 205.616 141.273 205.831 139.673 206.005C139.43 206.031 139.193 206.057 138.964 206.087C137.212 206.179 135.456 206.168 133.704 206.055C133.669 206.055 133.632 206.048 133.597 206.042C133.332 206.024 133.065 206.022 132.8 206.033C132.46 207.342 132.267 208.681 132.221 210.031C132.563 210.118 132.906 210.187 133.254 210.239C139.588 211.135 146.455 211.344 149.26 206.105C149.925 204.766 150.249 203.283 150.201 201.788C150.164 198.536 150.184 195.055 150.201 191.688V191.695ZM144.723 187.201V193.838C144.723 194.001 144.684 194.162 144.608 194.307C144.506 194.501 143.516 196.227 140.547 196.227C139.106 196.227 137.762 195.499 136.978 194.29C135.945 192.445 135.915 190.201 136.897 188.329C137.36 187.121 138.328 186.175 139.547 185.738C141.114 185.343 142.771 185.549 144.195 186.312C144.521 186.488 144.723 186.832 144.721 187.201H144.723ZM142.699 192.212C142.671 192.268 142.645 192.327 142.619 192.386C142.406 192.864 142.249 193.364 142.153 193.879L142.186 193.864C142.28 193.816 142.369 193.764 142.456 193.705C142.467 193.697 142.475 193.69 142.486 193.681C142.545 193.64 142.599 193.592 142.653 193.542C142.669 193.529 142.686 193.512 142.699 193.499V192.212Z" fill="#212121"/>
<path d="M185.317 193.662C184 194.225 182.565 194.825 181.135 195.421L181.374 195.623C181.417 195.657 181.458 195.697 181.495 195.74C183.1 197.41 184.443 199.309 185.482 201.379C185.869 202.292 184.943 203.081 183.884 203.794C183.732 203.903 183.569 203.998 183.4 204.081C180.98 205.542 178.213 206.333 175.387 206.372C172.559 206.396 169.805 205.464 167.572 203.725C167.463 203.64 167.353 203.553 167.253 203.464L163.381 200.216C163.307 200.153 163.24 200.086 163.166 200.02C163.051 199.914 162.946 199.825 162.827 199.712C162.707 199.596 162.585 199.473 162.479 199.364C162.372 199.255 162.277 199.155 162.168 199.033C162.059 198.912 161.946 198.777 161.851 198.662C161.755 198.544 161.668 198.442 161.57 198.312C161.472 198.183 161.37 198.038 161.285 197.916C161.203 197.794 161.125 197.686 161.038 197.549C160.951 197.412 160.861 197.26 160.788 197.131C160.714 197.003 160.644 196.892 160.57 196.747C160.494 196.603 160.418 196.444 160.353 196.307C160.29 196.17 160.225 196.038 160.166 195.903C160.101 195.749 160.042 195.599 159.983 195.444C159.929 195.307 159.877 195.171 159.829 195.031C159.775 194.873 159.729 194.714 159.681 194.553C159.638 194.412 159.594 194.271 159.557 194.127C159.516 193.964 159.481 193.799 159.444 193.634C159.414 193.488 159.379 193.342 159.353 193.197C159.322 193.027 159.301 192.853 159.275 192.682C159.253 192.534 159.231 192.388 159.214 192.238C159.194 192.062 159.185 191.884 159.175 191.705C159.164 191.56 159.146 191.408 159.146 191.258V190.701C159.146 190.551 159.142 190.406 159.146 190.256C159.153 190.064 159.17 189.869 159.183 189.673C159.194 189.527 159.201 189.379 159.216 189.232C159.235 189.027 159.268 188.819 159.299 188.612C159.318 188.473 159.331 188.334 159.357 188.195C159.396 187.958 159.446 187.723 159.496 187.486C159.522 187.371 159.54 187.256 159.568 187.138C159.651 186.784 159.744 186.43 159.851 186.075C159.975 185.68 160.12 185.293 160.29 184.914C160.322 184.836 160.355 184.758 160.39 184.682C160.557 184.321 160.746 183.969 160.953 183.628C160.99 183.567 161.029 183.508 161.068 183.449C161.268 183.136 161.483 182.832 161.714 182.541C161.751 182.497 161.781 182.454 161.814 182.412C162.068 182.102 162.338 181.802 162.622 181.519C162.653 181.489 162.664 181.469 162.707 181.425C162.751 181.382 162.803 181.343 162.848 181.299C162.996 181.165 163.148 181.028 163.305 180.895C163.394 180.821 163.481 180.743 163.572 180.671C163.748 180.532 163.931 180.399 164.116 180.267C164.192 180.21 164.266 180.154 164.346 180.102C164.611 179.921 164.883 179.749 165.166 179.589C165.209 179.565 165.257 179.541 165.3 179.517C165.54 179.384 165.783 179.258 166.033 179.139C166.14 179.091 166.24 179.047 166.342 179.002C166.544 178.913 166.746 178.828 166.948 178.75C167.066 178.706 167.183 178.663 167.303 178.621C167.503 178.552 167.713 178.484 167.916 178.423C168.035 178.391 168.157 178.354 168.279 178.321C168.502 178.263 168.729 178.21 168.957 178.163C169.065 178.139 169.17 178.115 169.281 178.093C169.618 178.03 169.959 177.978 170.305 177.939C170.678 177.897 171.048 177.878 171.415 177.867H171.718C172.02 177.867 172.32 177.876 172.615 177.895C172.681 177.9 172.75 177.9 172.817 177.906C173.17 177.936 173.517 177.982 173.859 178.041C173.941 178.054 174.026 178.073 174.109 178.091C174.383 178.143 174.652 178.206 174.917 178.278C175.002 178.302 175.089 178.321 175.174 178.347C175.5 178.443 175.822 178.552 176.135 178.676C176.183 178.695 176.235 178.719 176.283 178.739C176.55 178.849 176.811 178.969 177.067 179.099C177.15 179.141 177.233 179.184 177.313 179.23C177.589 179.378 177.856 179.536 178.115 179.706L178.18 179.747C178.456 179.932 178.719 180.134 178.976 180.345C179.004 180.369 179.037 180.389 179.067 180.412L182.937 183.66C183.88 184.451 184.674 185.406 185.28 186.477L185.369 186.627C185.493 186.823 185.602 187.027 185.689 187.243C186.415 188.645 186.928 190.149 187.21 191.703C187.458 192.797 186.045 193.379 185.432 193.629C185.395 193.64 185.356 193.651 185.317 193.66V193.662ZM181.252 188.303C180.98 187.11 180.558 185.956 179.998 184.869C179.978 184.83 179.961 184.788 179.945 184.747C179.898 184.634 179.839 184.528 179.772 184.425L179.652 184.223C178.035 181.436 175.015 179.767 171.796 179.878C171.372 179.878 170.95 179.902 170.531 179.949C166.535 180.247 163.101 182.888 161.785 186.673C160.314 191.616 161.496 196.188 164.948 198.892C168.622 201.772 173.826 201.849 178.524 199.088C178.572 199.06 178.624 199.036 178.676 199.016C178.967 198.833 179.248 198.629 179.513 198.41C178.656 196.927 177.643 195.542 176.491 194.275C176.372 194.344 176.254 194.41 176.198 194.444C176.106 194.501 176.013 194.551 175.917 194.597C173.461 195.986 169.835 196.744 167.6 194.353C167.4 194.147 167.231 193.912 167.094 193.658L167.005 193.51C166.972 193.458 166.944 193.401 166.922 193.342C166.079 191.179 166.057 188.214 167.909 186.471C169.494 185.171 171.968 184.456 173.737 185.51C174.065 185.706 174.254 186.071 174.226 186.454C174.198 186.834 173.957 187.167 173.602 187.312L171.026 188.375C170.857 188.445 170.67 188.532 170.513 188.614C170.902 189.847 171.394 191.047 171.985 192.197C172.152 192.14 172.339 192.068 172.504 191.995C173.748 191.462 175.08 190.908 176.42 190.349C177.913 189.725 179.413 189.099 180.782 188.512C180.826 188.495 180.869 188.48 180.913 188.466C181.03 188.414 181.148 188.358 181.252 188.306V188.303Z" fill="#212121"/>
<path d="M212.1 201.661L212.111 201.672C209.887 203.751 206.966 204.918 203.923 204.944C203.425 204.944 202.929 204.909 202.436 204.837C200.912 204.637 199.473 204.014 198.286 203.038L194.416 199.79C194.416 199.79 194.401 199.772 194.393 199.766C194.079 199.496 193.786 199.201 193.521 198.886C193.458 198.809 193.395 198.733 193.334 198.655C193.062 198.318 192.816 197.962 192.601 197.586C191.958 196.414 191.643 195.088 191.693 193.751C191.712 192.942 191.734 192.114 191.753 191.277C191.76 191.036 191.767 190.799 191.773 190.558C191.79 189.903 191.808 189.253 191.825 188.599L191.834 188.249V187.945L189.069 185.621C189.021 185.575 188.98 185.527 188.941 185.475C188.917 185.445 188.886 185.421 188.864 185.386C188.797 185.284 188.747 185.173 188.717 185.056C188.147 183.154 188.254 178.749 188.267 178.254C188.269 178.104 188.301 177.956 188.362 177.819C188.386 177.778 188.415 177.736 188.445 177.699C188.486 177.623 188.536 177.554 188.593 177.491C188.597 177.486 188.608 177.48 188.608 177.48C188.743 177.36 188.897 177.265 189.062 177.197C189.106 177.178 189.149 177.16 189.195 177.143C189.373 177.078 189.56 177.026 189.747 176.993H189.762C189.951 176.963 190.141 176.941 190.332 176.93L190.475 176.921C190.638 176.913 190.79 176.906 190.912 176.906L191.936 176.882H192.13L192.243 172.758C192.249 172.474 192.264 172.221 192.286 171.984C192.293 171.921 192.299 171.858 192.306 171.798C192.325 171.621 192.356 171.448 192.395 171.274C192.401 171.239 192.408 171.202 192.414 171.174C192.453 171.015 192.51 170.861 192.58 170.713C192.597 170.674 192.614 170.643 192.632 170.613C192.684 170.517 192.747 170.428 192.821 170.348C192.834 170.332 192.849 170.304 192.858 170.295C192.866 170.287 192.877 170.285 192.884 170.276C192.936 170.23 192.993 170.189 193.053 170.154C193.08 170.135 193.108 170.117 193.136 170.1C193.232 170.052 193.334 170.019 193.438 170C195.542 169.624 200.116 170.265 200.31 170.293C200.429 170.311 200.544 170.343 200.653 170.393C200.686 170.411 200.716 170.43 200.744 170.452C200.792 170.476 200.836 170.504 200.879 170.535L204.749 173.782C205.314 174.252 205.357 175.297 205.309 176.308L205.214 178.406L207.514 180.334C207.696 180.488 207.82 180.697 207.87 180.928C208.272 182.758 208.383 184.643 208.194 186.508C208.057 187.251 207.401 187.59 205.683 187.81C205.64 187.816 205.264 187.869 204.875 187.919L204.783 187.932L204.625 191.392C204.707 191.364 204.781 191.347 204.857 191.327C204.886 191.321 204.916 191.31 204.942 191.303C205.09 191.271 205.24 191.255 205.39 191.264C205.42 191.264 205.451 191.273 205.481 191.273C205.618 191.286 205.749 191.318 205.875 191.373C205.942 191.405 206.005 191.445 206.064 191.49C206.12 191.536 206.181 191.584 206.244 191.638L210.114 194.886C211.398 196.023 212.548 197.305 213.535 198.707C213.607 198.814 213.659 198.931 213.69 199.055C213.911 200.02 212.646 201.196 212.096 201.659L212.1 201.661ZM206.962 196.862C207.209 196.631 207.442 196.386 207.657 196.125C206.905 195.129 206.064 194.203 205.144 193.357C204.933 193.451 204.727 193.557 204.529 193.675L204.138 193.884C203.012 194.594 201.742 195.049 200.421 195.216C199.907 195.244 199.408 195.057 199.042 194.697C198.677 194.338 198.479 193.84 198.501 193.327L198.938 183.741C198.958 183.293 199.273 182.912 199.708 182.806C199.731 182.801 200.251 182.728 200.747 182.662C201.112 182.617 201.464 182.571 201.531 182.56C201.836 182.521 202.162 182.464 202.403 182.408C202.451 181.162 202.366 179.917 202.151 178.689C201.899 178.676 201.575 178.665 201.286 178.676L200.26 178.706C199.977 178.719 199.703 178.608 199.51 178.404C199.312 178.204 199.208 177.93 199.221 177.649L199.431 172.961C199.447 172.708 199.444 172.424 199.431 172.198C197.747 171.963 196.047 171.867 194.347 171.911C194.31 172.2 194.288 172.491 194.282 172.782L194.14 177.873C194.127 178.408 193.697 178.841 193.162 178.856C193.006 178.86 192.49 178.871 191.995 178.882L190.975 178.904C190.745 178.908 190.493 178.928 190.284 178.949C190.238 180.619 190.327 182.291 190.547 183.947C190.784 183.941 191.077 183.919 191.338 183.884L192.814 183.691C192.858 183.686 192.901 183.682 192.945 183.682C193.195 183.682 193.436 183.775 193.623 183.943C193.843 184.14 193.964 184.425 193.956 184.721L193.938 185.297C193.862 188.04 193.777 191.034 193.712 193.749C193.673 194.72 193.89 195.683 194.343 196.544C195.279 198.218 196.958 199.344 198.862 199.577C201.779 199.909 204.696 198.951 206.844 196.949C206.879 196.914 206.918 196.883 206.957 196.855L206.962 196.862Z" fill="#212121"/>
<path d="M242.097 202.977C242.023 204.661 241.786 205.729 240.81 205.85C240.334 205.898 239.856 205.92 239.375 205.916C237.925 205.937 236.478 205.779 235.067 205.444C234.923 205.396 234.791 205.324 234.676 205.227L230.806 201.979C230.791 201.966 230.784 201.946 230.771 201.931C230.652 201.82 230.554 201.69 230.482 201.544C230.478 201.538 230.474 201.531 230.471 201.522C230.398 201.355 230.343 201.179 230.313 200.996C230.306 200.964 230.298 200.931 230.293 200.894C230.263 200.705 230.245 200.514 230.235 200.322L230.228 200.192C230.221 200.001 230.217 199.807 230.217 199.616C230.165 198.712 230.158 197.781 230.158 196.792C230.158 196.407 230.15 196.014 230.15 195.623C230.15 195.503 230.141 195.384 230.141 195.264C230.137 194.984 230.13 194.703 230.119 194.423C230.113 194.275 230.102 194.129 230.093 193.981C230.08 193.736 230.065 193.492 230.043 193.251C230.028 193.088 230.008 192.94 229.991 192.786C229.965 192.564 229.937 192.345 229.904 192.132C229.893 192.073 229.88 192.016 229.869 191.958C229.6 192.06 229.348 192.201 229.119 192.377C229.176 193.986 229.239 195.647 229.302 197.31C229.369 199.133 229.439 200.955 229.498 202.707C229.574 204.029 229.498 205.427 228.378 205.609C226.096 205.935 223.78 205.959 221.491 205.685C221.3 205.655 221.12 205.572 220.972 205.448L217.102 202.201C217.102 202.201 217.089 202.181 217.083 202.175C216.979 202.081 216.892 201.972 216.822 201.851C216.807 201.825 216.794 201.796 216.781 201.768C216.724 201.657 216.679 201.54 216.642 201.42C216.637 201.405 216.624 201.388 216.624 201.37C216.592 201.246 216.563 201.118 216.544 200.99C216.539 200.957 216.531 200.931 216.531 200.901C216.518 200.796 216.507 200.699 216.5 200.625C216.352 195.11 216.281 189.562 216.213 184.197C216.172 180.904 216.131 177.613 216.072 174.328C216.066 174.021 216.072 173.752 216.083 173.5C216.085 173.437 216.094 173.376 216.094 173.315C216.107 173.098 216.133 172.882 216.172 172.667V172.65C216.205 172.489 216.255 172.33 216.32 172.18C216.335 172.148 216.35 172.111 216.368 172.08C216.426 171.956 216.505 171.843 216.6 171.745C216.646 171.704 216.696 171.669 216.748 171.637C216.77 171.617 216.794 171.6 216.818 171.582C216.902 171.537 216.992 171.5 217.083 171.474C218.896 170.974 222.946 171.33 223.402 171.374C223.52 171.389 223.635 171.419 223.743 171.467C223.785 171.482 223.811 171.508 223.843 171.528C223.902 171.556 223.959 171.591 224.011 171.628L227.88 174.876C228.263 175.295 228.478 175.841 228.487 176.41C228.565 177.502 228.617 178.591 228.656 179.667C228.722 179.676 228.785 179.695 228.85 179.706C229.065 179.743 229.278 179.789 229.493 179.836C229.648 179.871 229.8 179.904 229.952 179.943C230.174 180.002 230.393 180.073 230.611 180.145C230.752 180.191 230.893 180.232 231.032 180.286C231.274 180.375 231.506 180.482 231.739 180.582C231.854 180.632 231.971 180.678 232.087 180.734C232.43 180.902 232.767 181.082 233.097 181.284C233.413 181.488 233.717 181.712 234.006 181.952C234.017 181.96 234.028 181.969 234.039 181.975L237.91 185.223C241.936 188.601 242.071 194.634 242.171 199.123V199.164C242.195 200.255 242.145 201.77 242.099 202.968L242.097 202.977ZM236.206 199.657C236.247 198.577 236.299 197.02 236.278 195.966V195.925C236.176 191.323 236.047 185.595 232.024 183.001C229.715 181.578 226.909 181.206 224.311 181.98C224.27 181.993 224.226 182.006 224.18 182.012C223.887 182.086 223.574 182.023 223.333 181.841C223.091 181.658 222.944 181.378 222.933 181.075C222.894 180.125 222.863 179.16 222.833 178.189C222.783 176.591 222.728 174.939 222.615 173.35V173.332C221.124 173.2 219.622 173.2 218.131 173.332C218.102 173.654 218.092 173.978 218.1 174.3C218.159 177.591 218.2 180.886 218.242 184.184C218.309 189.542 218.381 195.086 218.524 200.516V200.535C220.22 200.668 221.924 200.64 223.615 200.449C223.63 200.153 223.63 199.855 223.615 199.557C223.55 197.786 223.48 195.968 223.413 194.142C223.346 192.318 223.276 190.495 223.217 188.743C223.207 188.475 223.304 188.216 223.487 188.021C224.535 186.951 225.993 186.388 227.489 186.477C228.352 186.525 229.171 186.873 229.806 187.458C232.156 189.475 232.169 193.362 232.182 196.788C232.187 197.749 232.189 198.657 232.239 199.49V199.607C232.241 199.964 232.252 200.209 232.265 200.381C233.537 200.601 234.828 200.688 236.119 200.64C236.16 200.355 236.197 199.983 236.21 199.649V199.653L236.206 199.657Z" fill="#212121"/>
<path d="M270.481 193.662C269.163 194.225 267.729 194.825 266.298 195.421L266.537 195.623C266.581 195.657 266.622 195.697 266.659 195.74C268.263 197.41 269.607 199.309 270.646 201.379C271.033 202.292 270.107 203.081 269.048 203.794C268.896 203.903 268.733 203.998 268.563 204.081C266.144 205.542 263.377 206.333 260.551 206.372C257.722 206.396 254.968 205.464 252.736 203.725C252.627 203.64 252.516 203.553 252.416 203.464L248.545 200.216C248.471 200.153 248.403 200.086 248.329 200.02C248.214 199.914 248.11 199.825 247.99 199.712C247.871 199.596 247.749 199.473 247.642 199.364C247.536 199.255 247.44 199.155 247.332 199.033C247.223 198.912 247.11 198.777 247.014 198.662C246.919 198.544 246.832 198.442 246.734 198.312C246.636 198.183 246.534 198.038 246.449 197.916C246.366 197.794 246.288 197.686 246.201 197.549C246.114 197.412 246.025 197.26 245.951 197.131C245.877 197.003 245.808 196.892 245.734 196.747C245.658 196.603 245.582 196.444 245.516 196.307C245.453 196.17 245.388 196.038 245.33 195.903C245.264 195.749 245.206 195.599 245.147 195.444C245.093 195.307 245.04 195.171 244.993 195.031C244.938 194.873 244.893 194.714 244.845 194.553C244.801 194.412 244.758 194.271 244.721 194.127C244.68 193.964 244.645 193.799 244.608 193.634C244.577 193.488 244.543 193.342 244.517 193.197C244.486 193.027 244.464 192.853 244.438 192.682C244.417 192.534 244.395 192.388 244.377 192.238C244.358 192.062 244.349 191.884 244.338 191.705C244.327 191.56 244.31 191.408 244.31 191.258V190.701C244.31 190.551 244.306 190.406 244.31 190.256C244.317 190.064 244.334 189.869 244.347 189.673C244.358 189.527 244.364 189.379 244.38 189.232C244.399 189.027 244.432 188.819 244.462 188.612C244.482 188.473 244.495 188.334 244.521 188.195C244.56 187.958 244.61 187.723 244.66 187.486C244.686 187.371 244.703 187.256 244.732 187.138C244.814 186.784 244.908 186.43 245.014 186.075C245.138 185.68 245.284 185.293 245.453 184.914C245.486 184.836 245.519 184.758 245.553 184.682C245.721 184.321 245.91 183.969 246.116 183.628C246.153 183.567 246.193 183.508 246.232 183.449C246.432 183.136 246.647 182.832 246.877 182.541C246.914 182.497 246.945 182.454 246.977 182.412C247.232 182.102 247.501 181.802 247.786 181.519C247.816 181.489 247.827 181.469 247.871 181.425C247.914 181.382 247.966 181.343 248.012 181.299C248.16 181.165 248.312 181.028 248.469 180.895C248.558 180.821 248.645 180.743 248.736 180.671C248.912 180.532 249.095 180.399 249.279 180.267C249.355 180.21 249.429 180.154 249.51 180.102C249.775 179.921 250.047 179.749 250.329 179.589C250.373 179.565 250.421 179.541 250.464 179.517C250.703 179.384 250.947 179.258 251.197 179.139C251.303 179.091 251.403 179.047 251.505 179.002C251.708 178.913 251.91 178.828 252.112 178.75C252.229 178.706 252.347 178.663 252.466 178.621C252.666 178.552 252.877 178.484 253.079 178.423C253.199 178.391 253.32 178.354 253.442 178.321C253.666 178.263 253.892 178.21 254.12 178.163C254.229 178.139 254.334 178.115 254.444 178.093C254.781 178.03 255.123 177.978 255.468 177.939C255.842 177.897 256.212 177.878 256.579 177.867H256.881C257.183 177.867 257.483 177.876 257.779 177.895C257.844 177.9 257.914 177.9 257.981 177.906C258.333 177.936 258.681 177.982 259.022 178.041C259.105 178.054 259.19 178.073 259.272 178.091C259.546 178.143 259.816 178.206 260.081 178.278C260.166 178.302 260.253 178.321 260.338 178.347C260.664 178.443 260.985 178.552 261.298 178.676C261.346 178.695 261.398 178.719 261.446 178.739C261.714 178.849 261.974 178.969 262.231 179.099C262.314 179.141 262.396 179.184 262.477 179.23C262.753 179.378 263.02 179.536 263.279 179.706L263.344 179.747C263.62 179.932 263.883 180.134 264.14 180.345C264.168 180.369 264.2 180.389 264.231 180.412L268.1 183.66C269.044 184.451 269.837 185.406 270.444 186.477L270.533 186.627C270.657 186.823 270.765 187.027 270.852 187.243C271.578 188.645 272.091 190.149 272.374 191.703C272.622 192.797 271.209 193.379 270.596 193.629C270.559 193.64 270.52 193.651 270.481 193.66V193.662ZM266.416 188.303C266.144 187.11 265.722 185.956 265.161 184.869C265.142 184.83 265.124 184.788 265.109 184.747C265.061 184.634 265.003 184.528 264.935 184.425L264.816 184.223C263.198 181.436 260.179 179.767 256.959 179.878C256.536 179.878 256.114 179.902 255.694 179.949C251.699 180.247 248.264 182.888 246.949 186.673C245.477 191.616 246.66 196.188 250.112 198.892C253.786 201.772 258.99 201.849 263.687 199.088C263.735 199.06 263.787 199.036 263.84 199.016C264.131 198.833 264.411 198.629 264.677 198.41C263.82 196.927 262.807 195.542 261.655 194.275C261.535 194.344 261.418 194.41 261.361 194.444C261.27 194.501 261.177 194.551 261.081 194.597C258.625 195.986 254.999 196.744 252.764 194.353C252.564 194.147 252.394 193.912 252.258 193.658L252.168 193.51C252.136 193.458 252.108 193.401 252.086 193.342C251.242 191.179 251.221 188.214 253.073 186.471C254.657 185.171 257.131 184.456 258.901 185.51C259.229 185.706 259.418 186.071 259.39 186.454C259.362 186.834 259.12 187.167 258.766 187.312L256.19 188.375C256.02 188.445 255.833 188.532 255.677 188.614C256.066 189.847 256.557 191.047 257.149 192.197C257.316 192.14 257.503 192.068 257.668 191.995C258.912 191.462 260.244 190.908 261.583 190.349C263.077 189.725 264.577 189.099 265.946 188.512C265.99 188.495 266.033 188.48 266.076 188.466C266.194 188.414 266.311 188.358 266.416 188.306V188.303Z" fill="#212121"/>
<path d="M295.775 187.312C295.743 187.477 295.671 187.632 295.562 187.762C295.034 188.251 294.349 188.534 293.63 188.562C293.447 188.582 293.267 188.616 293.088 188.662C291.997 188.86 291.038 189.503 290.443 190.438C290.415 190.521 290.382 190.601 290.349 190.679C290.334 190.742 290.315 190.803 290.288 190.862C290.212 191.26 290.019 191.627 289.732 191.914C289.662 191.973 289.584 192.021 289.499 192.06C289.152 192.205 288.771 192.253 288.397 192.203C288.447 193.549 288.506 194.979 288.565 196.405C288.634 198.112 288.704 199.816 288.758 201.37C288.839 202.703 288.771 204.118 287.647 204.3C286.156 204.518 284.652 204.629 283.145 204.633C282.352 204.644 281.556 204.59 280.771 204.47C280.565 204.427 280.371 204.333 280.211 204.198L276.341 200.951C276.304 200.92 276.272 200.885 276.241 200.851C276.176 200.777 276.122 200.696 276.076 200.609C276.065 200.59 276.059 200.564 276.046 200.544C276.009 200.47 275.974 200.394 275.946 200.316C275.93 200.277 275.922 200.233 275.909 200.192C275.889 200.127 275.865 200.062 275.848 199.99C275.835 199.942 275.83 199.905 275.817 199.842C275.804 199.777 275.787 199.703 275.778 199.648C275.769 199.594 275.765 199.555 275.756 199.492C275.748 199.431 275.735 199.353 275.73 199.307C275.726 199.262 275.72 199.22 275.72 199.177C275.713 199.114 275.702 199.049 275.702 198.99V198.89C275.698 198.831 275.691 198.768 275.691 198.716V198.505L275.683 198.499C275.574 195.849 275.467 193.168 275.363 190.482C275.226 187.021 275.089 183.554 274.946 180.138C274.933 179.825 274.933 179.554 274.939 179.299C274.939 179.236 274.946 179.171 274.946 179.11C274.952 178.717 275.026 178.326 275.163 177.958C275.178 177.926 275.193 177.891 275.211 177.858C275.27 177.732 275.35 177.617 275.446 177.517C275.589 177.38 275.767 177.282 275.959 177.236C277.9 176.706 282.326 176.989 282.824 177.023H282.858C282.937 177.03 283.015 177.047 283.089 177.073C283.226 177.121 283.354 177.193 283.465 177.286H283.474L284.591 178.223C284.693 178.189 284.806 178.158 284.906 178.123C285.047 178.076 285.189 178.028 285.332 177.982C285.554 177.912 285.78 177.852 286.01 177.793C286.152 177.756 286.291 177.719 286.434 177.686C286.689 177.628 286.947 177.582 287.206 177.539C287.332 177.517 287.454 177.491 287.58 177.473C287.969 177.417 288.36 177.371 288.756 177.345C288.78 177.341 288.834 177.334 288.908 177.326L288.986 177.319C289.049 177.313 289.117 177.302 289.202 177.302C289.245 177.295 289.293 177.295 289.341 177.295C289.423 177.289 289.508 177.289 289.599 177.289H289.778C289.871 177.289 289.967 177.297 290.067 177.304C290.13 177.31 290.193 177.315 290.256 177.321C290.362 177.332 290.469 177.352 290.571 177.373C290.628 177.384 290.686 177.393 290.743 177.406C290.873 177.439 291.001 177.48 291.125 177.532C291.149 177.543 291.175 177.547 291.197 177.558C291.325 177.615 291.445 177.689 291.554 177.778L295.425 181.025C295.558 181.134 295.664 181.273 295.734 181.43C295.762 181.497 295.784 181.567 295.797 181.638C296.075 183.523 296.069 185.438 295.775 187.319V187.312ZM290.023 179.338C289.669 179.31 289.315 179.31 288.96 179.338C287.11 179.432 285.308 179.956 283.697 180.869C283.424 181.036 283.084 181.062 282.789 180.941C282.493 180.819 282.271 180.565 282.193 180.254C282.169 180.125 282.156 179.997 282.152 179.867C282.13 179.454 282.106 179.175 282.08 178.986C280.378 178.867 278.667 178.895 276.972 179.071C276.95 179.395 276.946 179.719 276.959 180.041C277.102 183.458 277.239 186.927 277.376 190.39C277.482 193.075 277.587 195.755 277.696 198.403V198.486C277.709 198.757 277.737 199.027 277.778 199.294C279.482 199.405 281.191 199.351 282.884 199.135C282.902 198.827 282.902 198.518 282.884 198.212C282.828 196.638 282.758 194.938 282.689 193.231C282.615 191.386 282.539 189.527 282.48 187.849C282.471 187.582 282.567 187.321 282.75 187.125C282.932 186.929 283.187 186.814 283.454 186.803C283.778 186.803 284.1 186.832 284.417 186.89L284.532 186.91C284.563 186.812 284.6 186.716 284.641 186.621C284.663 186.549 284.691 186.477 284.721 186.408C285.513 184.888 286.952 183.812 288.63 183.484C288.897 183.406 289.169 183.347 289.445 183.31C289.595 183.288 289.825 183.251 290.004 183.21C290.138 181.925 290.145 180.63 290.021 179.343L290.023 179.338Z" fill="#212121"/>
</svg>
